solid PythonSCAD_Model
  facet normal -0.9238795325112867 0 -0.3826834323650901
    outer loop
      vertex 7.55 -7 39
      vertex 7.55 0 39
      vertex 8.267588386092958 -7 37.26758838609296
    endloop
  endfacet
  facet normal -0.9238795325112867 -3.0881441675566896e-18 0.3826834323650901
    outer loop
      vertex 7.55 -7 39
      vertex 8.267588386092958 -7 40.73241161390704
      vertex 8.267588386092958 0 40.73241161390704
    endloop
  endfacet
  facet normal -0.3826834323650918 0 0.9238795325112859
    outer loop
      vertex 8.267588386092958 -7 40.73241161390704
      vertex 10 -7 41.45
      vertex 8.267588386092958 0 40.73241161390704
    endloop
  endfacet
  facet normal 0 -1 0
    outer loop
      vertex 0 0 0
      vertex 3.2 0 0.28444444444444444
      vertex 0 0 3.2
    endloop
  endfacet
  facet normal 0 -1 0
    outer loop
      vertex 0 0 0
      vertex 3.2 0 0
      vertex 3.2 0 0.28444444444444444
    endloop
  endfacet
  facet normal 0 -1 0
    outer loop
      vertex 0 0 3.2
      vertex 13.750398200273823 0 20.19030116872178
      vertex 12.397407949908331 0 21.543291419087275
    endloop
  endfacet
  facet normal 0 -1 0
    outer loop
      vertex 0 0 3.2
      vertex 12.397407949908331 0 21.543291419087275
      vertex 10 0 36.55
    endloop
  endfacet
  facet normal 0 -1 0
    outer loop
      vertex 0 0 3.2
      vertex 7.55 0 39
      vertex 0 0 48.313704496788006
    endloop
  endfacet
  facet normal -1 0 0
    outer loop
      vertex 0 0 3.2
      vertex 0 3.5 65.9
      vertex 0 3.5 3.2
    endloop
  endfacet
  facet normal -1 0 0
    outer loop
      vertex 0 0 3.2
      vertex 0 0 48.313704496788006
      vertex 0 3.5 65.9
    endloop
  endfacet
  facet normal 0 -1 0
    outer loop
      vertex 0 0 3.2
      vertex 8.267588386092958 0 37.26758838609296
      vertex 7.55 0 39
    endloop
  endfacet
  facet normal 0 -1 0
    outer loop
      vertex 0 0 3.2
      vertex 10 0 36.55
      vertex 8.267588386092958 0 37.26758838609296
    endloop
  endfacet
  facet normal 0 -1 0
    outer loop
      vertex 0 0 48.313704496788006
      vertex 7.55 0 39
      vertex 8.267588386092958 0 40.73241161390704
    endloop
  endfacet
  facet normal -0.9238795325112867 0 0.3826834323650901
    outer loop
      vertex 7.55 -7 39
      vertex 8.267588386092958 0 40.73241161390704
      vertex 7.55 0 39
    endloop
  endfacet
  facet normal -0.9238795325112867 0 -0.3826834323650901
    outer loop
      vertex 8.267588386092958 -7 37.26758838609296
      vertex 7.55 0 39
      vertex 8.267588386092958 0 37.26758838609296
    endloop
  endfacet
  facet normal -0.3826834323650918 0 -0.9238795325112859
    outer loop
      vertex 8.267588386092958 -7 37.26758838609296
      vertex 8.267588386092958 0 37.26758838609296
      vertex 10 0 36.55
    endloop
  endfacet
  facet normal 0 -1 0
    outer loop
      vertex 7.55 -7 39
      vertex 8.267588386092958 -7 37.26758838609296
      vertex 12.45 -7 39
    endloop
  endfacet
  facet normal 0 -1 0
    outer loop
      vertex 8.267588386092958 -7 37.26758838609296
      vertex 10 -7 36.55
      vertex 11.732411613907042 -7 37.26758838609296
    endloop
  endfacet
  facet normal 0 -1 0
    outer loop
      vertex 7.55 -7 39
      vertex 11.732411613907042 -7 40.73241161390704
      vertex 8.267588386092958 -7 40.73241161390704
    endloop
  endfacet
  facet normal 0 -1 0
    outer loop
      vertex 8.267588386092958 -7 40.73241161390704
      vertex 11.732411613907042 -7 40.73241161390704
      vertex 10 -7 41.45
    endloop
  endfacet
  facet normal 0 -1 0
    outer loop
      vertex 8.267588386092958 -7 37.26758838609296
      vertex 11.732411613907042 -7 37.26758838609296
      vertex 12.45 -7 39
    endloop
  endfacet
  facet normal 0 -1 0
    outer loop
      vertex 7.55 -7 39
      vertex 12.45 -7 39
      vertex 11.732411613907042 -7 40.73241161390704
    endloop
  endfacet
  facet normal -0.3826834323650918 -3.4912869995308884e-18 -0.9238795325112859
    outer loop
      vertex 8.267588386092958 -7 37.26758838609296
      vertex 10 0 36.55
      vertex 10 -7 36.55
    endloop
  endfacet
  facet normal 0.3826834323650918 3.4912869995308884e-18 -0.9238795325112859
    outer loop
      vertex 10 -7 36.55
      vertex 11.732411613907042 0 37.26758838609296
      vertex 11.732411613907042 -7 37.26758838609296
    endloop
  endfacet
  facet normal 0.3826834323650918 0 0.9238795325112859
    outer loop
      vertex 10 -7 41.45
      vertex 11.732411613907042 -7 40.73241161390704
      vertex 10 0 41.45
    endloop
  endfacet
  facet normal 0.9238795325112868 0 -0.3826834323650897
    outer loop
      vertex 11.732411613907042 -7 37.26758838609296
      vertex 11.732411613907042 0 37.26758838609296
      vertex 12.45 -7 39
    endloop
  endfacet
  facet normal 0.9238795325112868 1.898019582681156e-18 0.3826834323650897
    outer loop
      vertex 11.732411613907042 -7 40.73241161390704
      vertex 12.45 -7 39
      vertex 12.45 0 39
    endloop
  endfacet
  facet normal 0 -1 0
    outer loop
      vertex 0 0 3.2
      vertex 3.2 0 0.28444444444444444
      vertex 36 0 3.2
    endloop
  endfacet
  facet normal 0.6785983445458474 0.28108463771482084 0.6785983445458466
    outer loop
      vertex 12.397407949908331 0 21.543291419087275
      vertex 13.750398200273823 0 20.19030116872178
      vertex 13.543291419087275 0.5 20.19030116872178
    endloop
  endfacet
  facet normal 0.6785983445458474 0.2810846377148209 0.6785983445458466
    outer loop
      vertex 12.190301168721783 0.5 21.543291419087275
      vertex 12.397407949908331 0 21.543291419087275
      vertex 13.543291419087275 0.5 20.19030116872178
    endloop
  endfacet
  facet normal 0.707106781186548 -1.478222747825249e-17 0.707106781186547
    outer loop
      vertex 12.190301168721783 0.5 21.543291419087275
      vertex 13.543291419087275 0.5 20.19030116872178
      vertex 13.543291419087275 3 20.19030116872178
    endloop
  endfacet
  facet normal 0.707106781186548 0 0.707106781186547
    outer loop
      vertex 12.190301168721783 0.5 21.543291419087275
      vertex 13.543291419087275 3 20.19030116872178
      vertex 12.190301168721783 3 21.543291419087275
    endloop
  endfacet
  facet normal 0.6785983445458473 -0.28108463771482095 0.6785983445458464
    outer loop
      vertex 12.190301168721783 3 21.543291419087275
      vertex 13.543291419087275 3 20.19030116872178
      vertex 13.750398200273823 3.5 20.19030116872178
    endloop
  endfacet
  facet normal 0 -1 0
    outer loop
      vertex 3.2 0 0
      vertex 36 0 0
      vertex 3.2 0 0.28444444444444444
    endloop
  endfacet
  facet normal 0 -1 0
    outer loop
      vertex 0 0 3.2
      vertex 36 0 3.2
      vertex 13.750398200273823 0 20.19030116872178
    endloop
  endfacet
  facet normal 0 0 1
    outer loop
      vertex 13.750398200273823 0 20.19030116872178
      vertex 13.543291419087275 3 20.19030116872178
      vertex 13.543291419087275 0.5 20.19030116872178
    endloop
  endfacet
  facet normal 0.9238795325112864 0.38268343236509034 0
    outer loop
      vertex 12.190301168721783 0.5 21.543291419087275
      vertex 12.397407949908331 0 38.87303155939569
      vertex 12.397407949908331 0 21.543291419087275
    endloop
  endfacet
  facet normal 0 -1 0
    outer loop
      vertex 12.397407949908331 0 21.543291419087275
      vertex 11.732411613907042 0 37.26758838609296
      vertex 10 0 36.55
    endloop
  endfacet
  facet normal 0 -1 0
    outer loop
      vertex 12.397407949908331 0 21.543291419087275
      vertex 12.397407949908331 0 38.87303155939569
      vertex 11.732411613907042 0 37.26758838609296
    endloop
  endfacet
  facet normal 0.9238795325112863 0.38268343236509084 0
    outer loop
      vertex 12.190301168721783 0.5 21.543291419087275
      vertex 12.397407949908331 0 39.12696844060431
      vertex 12.397407949908331 0 38.87303155939569
    endloop
  endfacet
  facet normal -0.3826834323650918 0 0.9238795325112859
    outer loop
      vertex 10 -7 41.45
      vertex 10 0 41.45
      vertex 8.267588386092958 0 40.73241161390704
    endloop
  endfacet
  facet normal 0.3826834323650918 0 -0.9238795325112859
    outer loop
      vertex 10 -7 36.55
      vertex 10 0 36.55
      vertex 11.732411613907042 0 37.26758838609296
    endloop
  endfacet
  facet normal 0.3826834323650918 0 0.9238795325112859
    outer loop
      vertex 11.732411613907042 -7 40.73241161390704
      vertex 11.732411613907042 0 40.73241161390704
      vertex 10 0 41.45
    endloop
  endfacet
  facet normal 0 -1 0
    outer loop
      vertex 12.397407949908331 0 53.456708580912725
      vertex 8.267588386092958 0 40.73241161390704
      vertex 10 0 41.45
    endloop
  endfacet
  facet normal 0.9238795325112871 1.5189075823769524e-16 -0.38268343236508917
    outer loop
      vertex 12.45 -7 39
      vertex 11.732411613907042 0 37.26758838609296
      vertex 12.397407949908331 0 38.87303155939569
    endloop
  endfacet
  facet normal 0.9238795325112841 1.9753207111389556e-15 0.38268343236509633
    outer loop
      vertex 11.732411613907042 -7 40.73241161390704
      vertex 12.45 0 39
      vertex 12.397407949908331 0 39.12696844060431
    endloop
  endfacet
  facet normal 0.9238795325112871 0 0.38268343236508917
    outer loop
      vertex 11.732411613907042 -7 40.73241161390704
      vertex 12.397407949908331 0 39.12696844060431
      vertex 11.732411613907042 0 40.73241161390704
    endloop
  endfacet
  facet normal 0.9238795325112841 0 -0.38268343236509633
    outer loop
      vertex 12.45 -7 39
      vertex 12.397407949908331 0 38.87303155939569
      vertex 12.45 0 39
    endloop
  endfacet
  facet normal 0.9238795325112865 0.38268343236509034 0
    outer loop
      vertex 12.190301168721783 0.5 21.543291419087275
      vertex 12.397407949908331 0 53.456708580912725
      vertex 12.397407949908331 0 39.12696844060431
    endloop
  endfacet
  facet normal 0 1 0
    outer loop
      vertex 12.45 0 39
      vertex 12.397407949908331 0 38.87303155939569
      vertex 12.397407949908331 0 39.12696844060431
    endloop
  endfacet
  facet normal 0 -1 0
    outer loop
      vertex 12.397407949908331 0 53.456708580912725
      vertex 11.732411613907042 0 40.73241161390704
      vertex 12.397407949908331 0 39.12696844060431
    endloop
  endfacet
  facet normal 0 -1 0
    outer loop
      vertex 12.397407949908331 0 53.456708580912725
      vertex 10 0 41.45
      vertex 11.732411613907042 0 40.73241161390704
    endloop
  endfacet
  facet normal 1 0 0
    outer loop
      vertex 12.190301168721783 0.5 21.543291419087275
      vertex 12.190301168721783 3 21.543291419087275
      vertex 12.190301168721783 3 53.456708580912725
    endloop
  endfacet
  facet normal 0.9238795325112865 -0.38268343236509034 0
    outer loop
      vertex 12.190301168721783 3 21.543291419087275
      vertex 12.397407949908331 3.5 21.543291419087275
      vertex 12.190301168721783 3 53.456708580912725
    endloop
  endfacet
  facet normal 0.9238795325112865 0.38268343236509034 0
    outer loop
      vertex 12.190301168721783 0.5 21.543291419087275
      vertex 12.190301168721783 0.5 53.456708580912725
      vertex 12.397407949908331 0 53.456708580912725
    endloop
  endfacet
  facet normal 1 0 0
    outer loop
      vertex 12.190301168721783 0.5 21.543291419087275
      vertex 12.190301168721783 3 53.456708580912725
      vertex 12.190301168721783 0.5 53.456708580912725
    endloop
  endfacet
  facet normal 0 -1 0
    outer loop
      vertex 7.8 -8.5 72.2
      vertex 10.04888888888889 -8.5 76.8
      vertex 7.8 -8.5 76.8
    endloop
  endfacet
  facet normal -1 0 0
    outer loop
      vertex 7.8 -8.5 72.2
      vertex 7.8 -8.5 76.8
      vertex 7.8 -4.1 72.2
    endloop
  endfacet
  facet normal -1 0 0
    outer loop
      vertex 7.8 -8.5 76.8
      vertex 7.8 -8.5 81.2
      vertex 7.8 -4.1 81.2
    endloop
  endfacet
  facet normal -1 0 0
    outer loop
      vertex 7.8 -8.5 81.2
      vertex 7.8 -8.5 84.3
      vertex 7.8 -4.1 84.3
    endloop
  endfacet
  facet normal -1 0 0
    outer loop
      vertex 7.8 -8.5 76.8
      vertex 7.8 -4.1 76.8
      vertex 7.8 -4.1 72.2
    endloop
  endfacet
  facet normal -1 0 0
    outer loop
      vertex 7.8 -8.5 81.2
      vertex 7.8 -4.1 84.3
      vertex 7.8 -4.1 81.2
    endloop
  endfacet
  facet normal -1 0 0
    outer loop
      vertex 7.8 -8.5 76.8
      vertex 7.8 0 81.2
      vertex 7.8 -4.1 76.8
    endloop
  endfacet
  facet normal -1 0 0
    outer loop
      vertex 7.8 -8.5 76.8
      vertex 7.8 -4.1 81.2
      vertex 7.8 0 81.2
    endloop
  endfacet
  facet normal 0 -1 0
    outer loop
      vertex 0 0 48.313704496788006
      vertex 1.3230114022502462 0 65.9
      vertex 0 0 65.9
    endloop
  endfacet
  facet normal 0 -1 0
    outer loop
      vertex 0 0 48.313704496788006
      vertex 5.2 0 65.9
      vertex 1.3230114022502462 0 65.9
    endloop
  endfacet
  facet normal -1 0 0
    outer loop
      vertex 0 0 48.313704496788006
      vertex 0 0 65.9
      vertex 0 3.5 65.9
    endloop
  endfacet
  facet normal 0 0 1
    outer loop
      vertex 0 0 65.9
      vertex 1.3230114022502462 0 65.9
      vertex 0 3.5 65.9
    endloop
  endfacet
  facet normal 0 0 1
    outer loop
      vertex 1.3230114022502462 0 65.9
      vertex 3.2 3.5 65.9
      vertex 0 3.5 65.9
    endloop
  endfacet
  facet normal 0 0 1
    outer loop
      vertex 1.3230114022502462 0 65.9
      vertex 5.2 0 65.9
      vertex 3.2 3.5 65.9
    endloop
  endfacet
  facet normal 0 -1 0
    outer loop
      vertex 0 0 48.313704496788006
      vertex 12.397407949908331 0 53.456708580912725
      vertex 5.2 0 65.9
    endloop
  endfacet
  facet normal 0 -1 0
    outer loop
      vertex 0 0 48.313704496788006
      vertex 8.267588386092958 0 40.73241161390704
      vertex 12.397407949908331 0 53.456708580912725
    endloop
  endfacet
  facet normal 0 0 1
    outer loop
      vertex 3.2 3.5 65.9
      vertex 5.2 0 65.9
      vertex 5.2 3.5 65.9
    endloop
  endfacet
  facet normal 0 -1 0
    outer loop
      vertex 5.2 0 65.9
      vertex 7.8 0 76.8
      vertex 5.2 0 95
    endloop
  endfacet
  facet normal -1 0 0
    outer loop
      vertex 7.8 -4.1 76.8
      vertex 7.8 0 81.2
      vertex 7.8 0 76.8
    endloop
  endfacet
  facet normal 0 -1 0
    outer loop
      vertex 5.2 0 65.9
      vertex 12.2 0 76.8
      vertex 7.8 0 76.8
    endloop
  endfacet
  facet normal 0 -1 0
    outer loop
      vertex 5.2 0 95
      vertex 7.8 0 76.8
      vertex 7.8 0 81.2
    endloop
  endfacet
  facet normal 0 -1 0
    outer loop
      vertex 5.2 0 95
      vertex 7.8 0 81.2
      vertex 12.2 0 81.2
    endloop
  endfacet
  facet normal -1 0 0
    outer loop
      vertex 5.2 0 65.9
      vertex 5.2 3.5 95
      vertex 5.2 3.5 65.9
    endloop
  endfacet
  facet normal -1 0 0
    outer loop
      vertex 5.2 0 65.9
      vertex 5.2 0 95
      vertex 5.2 3.5 95
    endloop
  endfacet
  facet normal 0 -1 0
    outer loop
      vertex 7.8 -8.5 72.2
      vertex 12.2 -8.5 72.2
      vertex 10.04888888888889 -8.5 76.8
    endloop
  endfacet
  facet normal 0 -1 0
    outer loop
      vertex 7.8 -8.5 76.8
      vertex 12.2 -8.5 81.2
      vertex 7.8 -8.5 81.2
    endloop
  endfacet
  facet normal 0 -1 0
    outer loop
      vertex 7.8 -8.5 76.8
      vertex 10.04888888888889 -8.5 76.8
      vertex 12.2 -8.5 81.2
    endloop
  endfacet
  facet normal 0 -1 0
    outer loop
      vertex 7.8 -8.5 81.2
      vertex 12.2 -8.5 81.2
      vertex 7.8 -8.5 84.3
    endloop
  endfacet
  facet normal 0 0 -1
    outer loop
      vertex 7.8 -8.5 72.2
      vertex 12.2 -4.1 72.2
      vertex 12.2 -8.5 72.2
    endloop
  endfacet
  facet normal 0 -1 0
    outer loop
      vertex 10.04888888888889 -8.5 76.8
      vertex 12.2 -8.5 72.2
      vertex 12.2 -8.5 76.8
    endloop
  endfacet
  facet normal 0 -1 0
    outer loop
      vertex 10.04888888888889 -8.5 76.8
      vertex 12.2 -8.5 76.8
      vertex 12.2 -8.5 81.2
    endloop
  endfacet
  facet normal 1 0 0
    outer loop
      vertex 12.2 -8.5 72.2
      vertex 12.2 -4.1 76.8
      vertex 12.2 -8.5 76.8
    endloop
  endfacet
  facet normal 1 0 0
    outer loop
      vertex 12.2 -8.5 76.8
      vertex 12.2 -4.1 76.8
      vertex 12.2 -8.5 81.2
    endloop
  endfacet
  facet normal 1 0 0
    outer loop
      vertex 12.2 -8.5 81.2
      vertex 12.2 -4.1 76.8
      vertex 12.2 -8.5 84.3
    endloop
  endfacet
  facet normal 0 -1 0
    outer loop
      vertex 7.8 -8.5 84.3
      vertex 12.2 -8.5 81.2
      vertex 12.2 -8.5 84.3
    endloop
  endfacet
  facet normal 0 0 1
    outer loop
      vertex 7.8 -8.5 84.3
      vertex 12.2 -8.5 84.3
      vertex 7.8 -4.1 84.3
    endloop
  endfacet
  facet normal 0 0 -1
    outer loop
      vertex 7.8 -8.5 72.2
      vertex 7.8 -4.1 72.2
      vertex 12.2 -4.1 72.2
    endloop
  endfacet
  facet normal 0 1 0
    outer loop
      vertex 7.8 -4.1 72.2
      vertex 7.8 -4.1 76.8
      vertex 12.2 -4.1 72.2
    endloop
  endfacet
  facet normal 0 1 0
    outer loop
      vertex 7.8 -4.1 76.8
      vertex 12.2 -4.1 76.8
      vertex 12.2 -4.1 72.2
    endloop
  endfacet
  facet normal 0 0 -1
    outer loop
      vertex 7.8 -4.1 76.8
      vertex 12.2 0 76.8
      vertex 12.2 -4.1 76.8
    endloop
  endfacet
  facet normal 0 1 0
    outer loop
      vertex 7.8 -4.1 81.2
      vertex 12.2 -4.1 84.3
      vertex 12.2 -4.1 81.2
    endloop
  endfacet
  facet normal 0 0 1
    outer loop
      vertex 7.8 -4.1 81.2
      vertex 12.2 -4.1 81.2
      vertex 12.2 0 81.2
    endloop
  endfacet
  facet normal 1 0 0
    outer loop
      vertex 12.2 -8.5 72.2
      vertex 12.2 -4.1 72.2
      vertex 12.2 -4.1 76.8
    endloop
  endfacet
  facet normal 1 0 0
    outer loop
      vertex 12.2 -8.5 84.3
      vertex 12.2 -4.1 76.8
      vertex 12.2 -4.1 81.2
    endloop
  endfacet
  facet normal 1 0 0
    outer loop
      vertex 12.2 -4.1 76.8
      vertex 12.2 0 76.8
      vertex 12.2 -4.1 81.2
    endloop
  endfacet
  facet normal 0 0 1
    outer loop
      vertex 7.8 -4.1 84.3
      vertex 12.2 -8.5 84.3
      vertex 12.2 -4.1 84.3
    endloop
  endfacet
  facet normal 0 1 0
    outer loop
      vertex 7.8 -4.1 81.2
      vertex 7.8 -4.1 84.3
      vertex 12.2 -4.1 84.3
    endloop
  endfacet
  facet normal 1 0 0
    outer loop
      vertex 12.2 -8.5 84.3
      vertex 12.2 -4.1 81.2
      vertex 12.2 -4.1 84.3
    endloop
  endfacet
  facet normal 0 -1 0
    outer loop
      vertex 5.2 0 65.9
      vertex 12.397407949908331 0 53.456708580912725
      vertex 13.750398200273823 0 54.80969883127822
    endloop
  endfacet
  facet normal 0.6785983445458474 0.2810846377148209 -0.6785983445458466
    outer loop
      vertex 12.190301168721783 0.5 53.456708580912725
      vertex 13.750398200273823 0 54.80969883127822
      vertex 12.397407949908331 0 53.456708580912725
    endloop
  endfacet
  facet normal 0.6785983445458473 0.28108463771482095 -0.6785983445458464
    outer loop
      vertex 12.190301168721783 0.5 53.456708580912725
      vertex 13.543291419087275 0.5 54.80969883127822
      vertex 13.750398200273823 0 54.80969883127822
    endloop
  endfacet
  facet normal 0.707106781186548 0 -0.707106781186547
    outer loop
      vertex 12.190301168721783 0.5 53.456708580912725
      vertex 12.190301168721783 3 53.456708580912725
      vertex 13.543291419087275 0.5 54.80969883127822
    endloop
  endfacet
  facet normal 0.707106781186548 1.478222747825249e-17 -0.707106781186547
    outer loop
      vertex 12.190301168721783 3 53.456708580912725
      vertex 13.543291419087275 3 54.80969883127822
      vertex 13.543291419087275 0.5 54.80969883127822
    endloop
  endfacet
  facet normal 0.6785983445458474 -0.2810846377148209 -0.6785983445458466
    outer loop
      vertex 12.190301168721783 3 53.456708580912725
      vertex 12.397407949908331 3.5 53.456708580912725
      vertex 13.543291419087275 3 54.80969883127822
    endloop
  endfacet
  facet normal 0 -1 0
    outer loop
      vertex 5.2 0 65.9
      vertex 13.750398200273823 0 54.80969883127822
      vertex 28.24960179972618 0 54.80969883127822
    endloop
  endfacet
  facet normal 0 0 -1
    outer loop
      vertex 13.750398200273823 0 54.80969883127822
      vertex 13.543291419087275 0.5 54.80969883127822
      vertex 13.750398200273823 3.5 54.80969883127822
    endloop
  endfacet
  facet normal 0 0 -1
    outer loop
      vertex 13.543291419087275 0.5 54.80969883127822
      vertex 13.543291419087275 3 54.80969883127822
      vertex 13.750398200273823 3.5 54.80969883127822
    endloop
  endfacet
  facet normal 0 0 -1
    outer loop
      vertex 7.8 -4.1 76.8
      vertex 7.8 0 76.8
      vertex 12.2 0 76.8
    endloop
  endfacet
  facet normal 0 0 1
    outer loop
      vertex 7.8 -4.1 81.2
      vertex 12.2 0 81.2
      vertex 7.8 0 81.2
    endloop
  endfacet
  facet normal 1 0 0
    outer loop
      vertex 12.2 -4.1 81.2
      vertex 12.2 0 76.8
      vertex 12.2 0 81.2
    endloop
  endfacet
  facet normal 0 -1 0
    outer loop
      vertex 5.2 0 65.9
      vertex 36 0 95
      vertex 12.2 0 76.8
    endloop
  endfacet
  facet normal 0 -1 0
    outer loop
      vertex 5.2 0 95
      vertex 12.2 0 81.2
      vertex 36 0 95
    endloop
  endfacet
  facet normal 0 0 1
    outer loop
      vertex 5.2 0 95
      vertex 36 3.5 95
      vertex 5.2 3.5 95
    endloop
  endfacet
  facet normal -1 0 0
    outer loop
      vertex 0 0 0
      vertex 0 0 3.2
      vertex 0 11.7 2.512751677852349
    endloop
  endfacet
  facet normal -1 0 0
    outer loop
      vertex 0 0 3.2
      vertex 0 3.5 3.2
      vertex 0 11.7 2.512751677852349
    endloop
  endfacet
  facet normal 0 0 -1
    outer loop
      vertex 0 0 0
      vertex 3.2 14.53775878442545 0
      vertex 3.2 0 0
    endloop
  endfacet
  facet normal -1 0 0
    outer loop
      vertex 0 0 0
      vertex 0 11.7 2.512751677852349
      vertex 0 14.899999999999999 0
    endloop
  endfacet
  facet normal 1 0 0
    outer loop
      vertex 3.2 3.5 3.2
      vertex 3.2 11.7 3.2
      vertex 3.2 3.5 65.9
    endloop
  endfacet
  facet normal 1 0 0
    outer loop
      vertex 3.2 3.5 65.9
      vertex 3.2 11.7 3.2
      vertex 3.2 11.7 12
    endloop
  endfacet
  facet normal -1 0 0
    outer loop
      vertex 0 3.5 3.2
      vertex 0 3.5 65.9
      vertex 0 14.899999999999999 65.9
    endloop
  endfacet
  facet normal 0 1 0
    outer loop
      vertex 3.2 3.5 3.2
      vertex 3.2 3.5 65.9
      vertex 12.397407949908331 3.5 21.543291419087275
    endloop
  endfacet
  facet normal 0 0 -1
    outer loop
      vertex 0 0 0
      vertex 0 14.899999999999999 0
      vertex 3.12404969404784 14.546356387910253 0
    endloop
  endfacet
  facet normal -1 0 0
    outer loop
      vertex 0 3.5 3.2
      vertex 0 14.899999999999999 3.2
      vertex 0 11.7 2.512751677852349
    endloop
  endfacet
  facet normal 0 0 -1
    outer loop
      vertex 0 0 0
      vertex 3.12404969404784 14.546356387910253 0
      vertex 3.2 14.53775878442545 0
    endloop
  endfacet
  facet normal -1 0 0
    outer loop
      vertex 0 11.7 2.512751677852349
      vertex 0 14.899999999999999 3.2
      vertex 0 14.899999999999999 0
    endloop
  endfacet
  facet normal 0 1 0
    outer loop
      vertex 0 14.899999999999999 0
      vertex 0 14.899999999999999 3.2
      vertex 3.2 14.899999999999999 0
    endloop
  endfacet
  facet normal 0 0 -1
    outer loop
      vertex 0 14.899999999999999 0
      vertex 3.2 14.899999999999999 0
      vertex 3.12404969404784 14.546356387910253 0
    endloop
  endfacet
  facet normal 0 0 -1
    outer loop
      vertex 3.12404969404784 14.546356387910253 0
      vertex 3.2 14.899999999999999 0
      vertex 3.2 14.53775878442545 0
    endloop
  endfacet
  facet normal -1 0 0
    outer loop
      vertex 0 3.5 3.2
      vertex 0 14.899999999999999 65.9
      vertex 0 14.899999999999999 3.2
    endloop
  endfacet
  facet normal 1 0 0
    outer loop
      vertex 3.2 3.5 65.9
      vertex 3.2 11.7 12
      vertex 3.2 14.899999999999999 12
    endloop
  endfacet
  facet normal 0 1 0
    outer loop
      vertex 0 14.899999999999999 3.2
      vertex 3.2 14.899999999999999 65.9
      vertex 3.2 14.899999999999999 12
    endloop
  endfacet
  facet normal 0 1 0
    outer loop
      vertex 0 14.899999999999999 3.2
      vertex 0 14.899999999999999 65.9
      vertex 3.2 14.899999999999999 65.9
    endloop
  endfacet
  facet normal 0 1 0
    outer loop
      vertex 3.2 3.5 3.2
      vertex 12.397407949908331 3.5 21.543291419087275
      vertex 13.750398200273823 3.5 20.19030116872178
    endloop
  endfacet
  facet normal 0.6785983445458474 -0.2810846377148209 0.6785983445458466
    outer loop
      vertex 12.190301168721783 3 21.543291419087275
      vertex 13.750398200273823 3.5 20.19030116872178
      vertex 12.397407949908331 3.5 21.543291419087275
    endloop
  endfacet
  facet normal 0 0 -1
    outer loop
      vertex 3.2 0 0
      vertex 3.2 14.53775878442545 0
      vertex 28.268456375838927 11.7 0
    endloop
  endfacet
  facet normal 0 1 0
    outer loop
      vertex 3.2 3.5 3.2
      vertex 13.750398200273823 3.5 20.19030116872178
      vertex 28.24960179972618 3.5 20.19030116872178
    endloop
  endfacet
  facet normal 0 0 1
    outer loop
      vertex 3.2 3.5 3.2
      vertex 36 11.7 3.2
      vertex 3.2 11.7 3.2
    endloop
  endfacet
  facet normal 0.9238795325112865 -0.38268343236509034 0
    outer loop
      vertex 12.397407949908331 3.5 21.543291419087275
      vertex 12.397407949908331 3.5 53.456708580912725
      vertex 12.190301168721783 3 53.456708580912725
    endloop
  endfacet
  facet normal 0 0 -1
    outer loop
      vertex 3.2 14.53775878442545 0
      vertex 3.2 14.899999999999999 0
      vertex 28.268456375838927 11.7 0
    endloop
  endfacet
  facet normal 0 1 0
    outer loop
      vertex 0 14.899999999999999 3.2
      vertex 36 14.899999999999999 0
      vertex 3.2 14.899999999999999 0
    endloop
  endfacet
  facet normal 0 1 0
    outer loop
      vertex 0 14.899999999999999 3.2
      vertex 3.2 14.899999999999999 12
      vertex 36 14.899999999999999 12
    endloop
  endfacet
  facet normal 0 -1 0
    outer loop
      vertex 3.2 11.7 3.2
      vertex 36 11.7 12
      vertex 3.2 11.7 12
    endloop
  endfacet
  facet normal 0 0 1
    outer loop
      vertex 3.2 11.7 12
      vertex 36 14.899999999999999 12
      vertex 3.2 14.899999999999999 12
    endloop
  endfacet
  facet normal 0 0 1
    outer loop
      vertex 0 3.5 65.9
      vertex 3.2 3.5 65.9
      vertex 0 14.899999999999999 65.9
    endloop
  endfacet
  facet normal 0 1 0
    outer loop
      vertex 12.397407949908331 3.5 21.543291419087275
      vertex 3.2 3.5 65.9
      vertex 5.2 3.5 65.9
    endloop
  endfacet
  facet normal 0 1 0
    outer loop
      vertex 12.397407949908331 3.5 21.543291419087275
      vertex 5.2 3.5 65.9
      vertex 5.2 3.5 95
    endloop
  endfacet
  facet normal 1 0 0
    outer loop
      vertex 3.2 3.5 65.9
      vertex 3.2 14.899999999999999 12
      vertex 3.2 14.899999999999999 65.9
    endloop
  endfacet
  facet normal 0 0 1
    outer loop
      vertex 3.2 3.5 65.9
      vertex 3.2 14.899999999999999 65.9
      vertex 0 14.899999999999999 65.9
    endloop
  endfacet
  facet normal -1 0 0
    outer loop
      vertex 5.2 11.7 72
      vertex 5.2 11.7 93.9122233490111
      vertex 5.2 11.73633703506394 93.75302039628254
    endloop
  endfacet
  facet normal -1 0 0
    outer loop
      vertex 5.2 11.7 72
      vertex 5.2 14.863662964936058 93.75302039628254
      vertex 5.2 14.899999999999999 72
    endloop
  endfacet
  facet normal -1 0 0
    outer loop
      vertex 5.2 11.7 72
      vertex 5.2 11.73633703506394 93.75302039628254
      vertex 5.2 13.299999999999999 93
    endloop
  endfacet
  facet normal -1 0 0
    outer loop
      vertex 5.2 11.7 72
      vertex 5.2 13.299999999999999 93
      vertex 5.2 14.863662964936058 93.75302039628254
    endloop
  endfacet
  facet normal -1 0 0
    outer loop
      vertex 5.2 14.899999999999999 72
      vertex 5.2 14.863662964936058 93.75302039628254
      vertex 5.2 14.899999999999999 93.91222334901111
    endloop
  endfacet
  facet normal 0 1 0
    outer loop
      vertex 12.397407949908331 3.5 21.543291419087275
      vertex 5.2 3.5 95
      vertex 12.397407949908331 3.5 53.456708580912725
    endloop
  endfacet
  facet normal 0.6785983445458474 -0.28108463771482084 -0.6785983445458466
    outer loop
      vertex 12.397407949908331 3.5 53.456708580912725
      vertex 13.750398200273823 3.5 54.80969883127822
      vertex 13.543291419087275 3 54.80969883127822
    endloop
  endfacet
  facet normal 0 1 0
    outer loop
      vertex 5.2 3.5 95
      vertex 13.750398200273823 3.5 54.80969883127822
      vertex 12.397407949908331 3.5 53.456708580912725
    endloop
  endfacet
  facet normal 0 -1 0
    outer loop
      vertex 5.2 11.7 72
      vertex 36 11.7 72
      vertex 5.2 11.7 93.9122233490111
    endloop
  endfacet
  facet normal 0 0.9749279121818201 0.22252093395632974
    outer loop
      vertex 5.2 11.73633703506394 93.75302039628254
      vertex 5.2 11.7 93.9122233490111
      vertex 36 11.73633703506394 93.75302039628254
    endloop
  endfacet
  facet normal 0 0 -1
    outer loop
      vertex 5.2 11.7 72
      vertex 5.2 14.899999999999999 72
      vertex 36 11.7 72
    endloop
  endfacet
  facet normal 0 0.43388373911756006 0.9009688679024183
    outer loop
      vertex 5.2 11.73633703506394 93.75302039628254
      vertex 36 11.73633703506394 93.75302039628254
      vertex 5.2 13.299999999999999 93
    endloop
  endfacet
  facet normal 0 1 0
    outer loop
      vertex 5.2 14.899999999999999 72
      vertex 5.2 14.899999999999999 93.91222334901111
      vertex 36 14.899999999999999 93.91222334901111
    endloop
  endfacet
  facet normal 0 -0.43388373911756006 0.9009688679024183
    outer loop
      vertex 5.2 13.299999999999999 93
      vertex 36 13.299999999999999 93
      vertex 5.2 14.863662964936058 93.75302039628254
    endloop
  endfacet
  facet normal 5.150914713337574e-20 -0.9749279121818245 0.2225209339563109
    outer loop
      vertex 5.2 14.863662964936058 93.75302039628254
      vertex 36 14.899999999999999 93.91222334901111
      vertex 5.2 14.899999999999999 93.91222334901111
    endloop
  endfacet
  facet normal 0 0 1
    outer loop
      vertex 13.750398200273823 0 20.19030116872178
      vertex 28.456708580912725 0.5 20.19030116872178
      vertex 13.543291419087275 3 20.19030116872178
    endloop
  endfacet
  facet normal 0 -1 0
    outer loop
      vertex 3.2 0 0.28444444444444444
      vertex 36 0 0
      vertex 36 0 3.2
    endloop
  endfacet
  facet normal 0 0 1
    outer loop
      vertex 13.750398200273823 0 20.19030116872178
      vertex 28.24960179972618 0 20.19030116872178
      vertex 28.456708580912725 0.5 20.19030116872178
    endloop
  endfacet
  facet normal 0 -1 0
    outer loop
      vertex 13.750398200273823 0 20.19030116872178
      vertex 36 0 3.2
      vertex 28.24960179972618 0 20.19030116872178
    endloop
  endfacet
  facet normal 0 0 1
    outer loop
      vertex 13.543291419087275 3 20.19030116872178
      vertex 28.456708580912725 0.5 20.19030116872178
      vertex 28.456708580912725 3 20.19030116872178
    endloop
  endfacet
  facet normal 0 0 1
    outer loop
      vertex 13.543291419087275 3 20.19030116872178
      vertex 28.456708580912725 3 20.19030116872178
      vertex 28.24960179972618 3.5 20.19030116872178
    endloop
  endfacet
  facet normal -0.6785983445458474 0.28108463771481856 0.6785983445458474
    outer loop
      vertex 28.24960179972618 0 20.19030116872178
      vertex 29.602592050091673 0 21.543291419087275
      vertex 29.80969883127822 0.5 21.543291419087275
    endloop
  endfacet
  facet normal 0 -1 0
    outer loop
      vertex 28.24960179972618 0 20.19030116872178
      vertex 36 0 3.2
      vertex 29.602592050091673 0 21.543291419087275
    endloop
  endfacet
  facet normal -0.6785983445458474 0.2810846377148185 0.6785983445458474
    outer loop
      vertex 28.24960179972618 0 20.19030116872178
      vertex 29.80969883127822 0.5 21.543291419087275
      vertex 28.456708580912725 0.5 20.19030116872178
    endloop
  endfacet
  facet normal -0.7071067811865476 0 0.7071067811865476
    outer loop
      vertex 28.456708580912725 0.5 20.19030116872178
      vertex 29.80969883127822 0.5 21.543291419087275
      vertex 28.456708580912725 3 20.19030116872178
    endloop
  endfacet
  facet normal -0.7071067811865476 0 0.7071067811865476
    outer loop
      vertex 29.80969883127822 0.5 21.543291419087275
      vertex 29.80969883127822 3 21.543291419087275
      vertex 28.456708580912725 3 20.19030116872178
    endloop
  endfacet
  facet normal -0.6785983445458474 -0.2810846377148185 0.6785983445458474
    outer loop
      vertex 28.456708580912725 3 20.19030116872178
      vertex 29.80969883127822 3 21.543291419087275
      vertex 29.602592050091673 3.5 21.543291419087275
    endloop
  endfacet
  facet normal 1 0 0
    outer loop
      vertex 36 0 0
      vertex 36 3.5 0
      vertex 36 0 3.2
    endloop
  endfacet
  facet normal 1 0 0
    outer loop
      vertex 36 0 3.2
      vertex 36 3.5 0
      vertex 36 3.3821052631578947 3.2
    endloop
  endfacet
  facet normal -0.9238795325112876 0.38268343236508756 0
    outer loop
      vertex 29.602592050091673 0 21.543291419087275
      vertex 29.602592050091673 0 53.456708580912725
      vertex 29.80969883127822 0.5 53.456708580912725
    endloop
  endfacet
  facet normal -0.9238795325112876 0.38268343236508756 0
    outer loop
      vertex 29.602592050091673 0 21.543291419087275
      vertex 29.80969883127822 0.5 53.456708580912725
      vertex 29.80969883127822 0.5 21.543291419087275
    endloop
  endfacet
  facet normal -1 0 0
    outer loop
      vertex 29.80969883127822 0.5 21.543291419087275
      vertex 29.80969883127822 0.5 53.456708580912725
      vertex 29.80969883127822 3 21.543291419087275
    endloop
  endfacet
  facet normal -1 0 0
    outer loop
      vertex 29.80969883127822 3 21.543291419087275
      vertex 29.80969883127822 0.5 53.456708580912725
      vertex 29.80969883127822 3 53.456708580912725
    endloop
  endfacet
  facet normal -0.9238795325112876 -0.38268343236508756 0
    outer loop
      vertex 29.80969883127822 3 21.543291419087275
      vertex 29.80969883127822 3 53.456708580912725
      vertex 29.602592050091673 3.5 53.456708580912725
    endloop
  endfacet
  facet normal 0 -1 0
    outer loop
      vertex 29.602592050091673 0 21.543291419087275
      vertex 36 0 3.2
      vertex 29.602592050091673 0 53.456708580912725
    endloop
  endfacet
  facet normal 1 0 0
    outer loop
      vertex 36 0 3.2
      vertex 36 3.3821052631578947 3.2
      vertex 36 0 95
    endloop
  endfacet
  facet normal 0 0 -1
    outer loop
      vertex 13.750398200273823 0 54.80969883127822
      vertex 13.750398200273823 3.5 54.80969883127822
      vertex 28.24960179972618 0 54.80969883127822
    endloop
  endfacet
  facet normal 0 0 -1
    outer loop
      vertex 13.750398200273823 3.5 54.80969883127822
      vertex 28.456708580912725 0.5 54.80969883127822
      vertex 28.24960179972618 0 54.80969883127822
    endloop
  endfacet
  facet normal 0 0 -1
    outer loop
      vertex 13.750398200273823 3.5 54.80969883127822
      vertex 28.456708580912725 3 54.80969883127822
      vertex 28.456708580912725 0.5 54.80969883127822
    endloop
  endfacet
  facet normal 0 -1 0
    outer loop
      vertex 36 0 95
      vertex 12.2 0 81.2
      vertex 12.2 0 76.8
    endloop
  endfacet
  facet normal 0 -1 0
    outer loop
      vertex 5.2 0 65.9
      vertex 28.24960179972618 0 54.80969883127822
      vertex 36 0 95
    endloop
  endfacet
  facet normal 0 0 1
    outer loop
      vertex 5.2 0 95
      vertex 36 0 95
      vertex 36 3.5 95
    endloop
  endfacet
  facet normal -0.6785983445458474 0.2810846377148185 -0.6785983445458474
    outer loop
      vertex 28.24960179972618 0 54.80969883127822
      vertex 28.456708580912725 0.5 54.80969883127822
      vertex 29.602592050091673 0 53.456708580912725
    endloop
  endfacet
  facet normal 0 -1 0
    outer loop
      vertex 28.24960179972618 0 54.80969883127822
      vertex 29.602592050091673 0 53.456708580912725
      vertex 36 0 95
    endloop
  endfacet
  facet normal -0.7071067811865476 0 -0.7071067811865476
    outer loop
      vertex 28.456708580912725 0.5 54.80969883127822
      vertex 28.456708580912725 3 54.80969883127822
      vertex 29.80969883127822 0.5 53.456708580912725
    endloop
  endfacet
  facet normal -0.6785983445458474 -0.2810846377148185 -0.6785983445458474
    outer loop
      vertex 28.456708580912725 3 54.80969883127822
      vertex 28.24960179972618 3.5 54.80969883127822
      vertex 29.80969883127822 3 53.456708580912725
    endloop
  endfacet
  facet normal -0.6785983445458474 0.2810846377148185 -0.6785983445458474
    outer loop
      vertex 28.456708580912725 0.5 54.80969883127822
      vertex 29.80969883127822 0.5 53.456708580912725
      vertex 29.602592050091673 0 53.456708580912725
    endloop
  endfacet
  facet normal -0.7071067811865476 0 -0.7071067811865476
    outer loop
      vertex 29.80969883127822 0.5 53.456708580912725
      vertex 28.456708580912725 3 54.80969883127822
      vertex 29.80969883127822 3 53.456708580912725
    endloop
  endfacet
  facet normal 0 -1 0
    outer loop
      vertex 36 0 3.2
      vertex 36 0 95
      vertex 29.602592050091673 0 53.456708580912725
    endloop
  endfacet
  facet normal 1 0 0
    outer loop
      vertex 36 3.3821052631578947 3.2
      vertex 36 3.5 95
      vertex 36 0 95
    endloop
  endfacet
  facet normal 0 0 -1
    outer loop
      vertex 3.2 0 0
      vertex 28.268456375838927 11.7 0
      vertex 36 0 0
    endloop
  endfacet
  facet normal 0 1 0
    outer loop
      vertex 3.2 3.5 3.2
      vertex 28.24960179972618 3.5 20.19030116872178
      vertex 36 3.5 3.2
    endloop
  endfacet
  facet normal 0 0 1
    outer loop
      vertex 13.543291419087275 3 20.19030116872178
      vertex 28.24960179972618 3.5 20.19030116872178
      vertex 13.750398200273823 3.5 20.19030116872178
    endloop
  endfacet
  facet normal 0 0 1
    outer loop
      vertex 3.2 3.5 3.2
      vertex 36 3.5 3.2
      vertex 36 11.7 3.2
    endloop
  endfacet
  facet normal 0 0 -1
    outer loop
      vertex 3.2 14.899999999999999 0
      vertex 36 14.899999999999999 0
      vertex 28.268456375838927 11.7 0
    endloop
  endfacet
  facet normal 0 -1 0
    outer loop
      vertex 3.2 11.7 3.2
      vertex 36 11.7 3.2
      vertex 36 11.7 12
    endloop
  endfacet
  facet normal 0 1 0
    outer loop
      vertex 0 14.899999999999999 3.2
      vertex 36 14.899999999999999 3.2
      vertex 36 14.899999999999999 0
    endloop
  endfacet
  facet normal 0 1 0
    outer loop
      vertex 0 14.899999999999999 3.2
      vertex 36 14.899999999999999 12
      vertex 36 14.899999999999999 3.2
    endloop
  endfacet
  facet normal 0 0 1
    outer loop
      vertex 3.2 11.7 12
      vertex 36 11.7 12
      vertex 36 14.899999999999999 12
    endloop
  endfacet
  facet normal -0.6785983445458474 -0.2810846377148185 0.6785983445458474
    outer loop
      vertex 28.456708580912725 3 20.19030116872178
      vertex 29.602592050091673 3.5 21.543291419087275
      vertex 28.24960179972618 3.5 20.19030116872178
    endloop
  endfacet
  facet normal 0 1 0
    outer loop
      vertex 28.24960179972618 3.5 20.19030116872178
      vertex 29.602592050091673 3.5 21.543291419087275
      vertex 36 3.5 3.2
    endloop
  endfacet
  facet normal 0 0 -1
    outer loop
      vertex 36 0 0
      vertex 28.268456375838927 11.7 0
      vertex 36 3.5 0
    endloop
  endfacet
  facet normal 1 0 0
    outer loop
      vertex 36 3.5 0
      vertex 36 3.5 3.2
      vertex 36 3.3821052631578947 3.2
    endloop
  endfacet
  facet normal 0 0 -1
    outer loop
      vertex 36 3.5 0
      vertex 28.268456375838927 11.7 0
      vertex 36 11.7 0
    endloop
  endfacet
  facet normal 1 0 0
    outer loop
      vertex 36 3.5 0
      vertex 36 11.7 0
      vertex 36 3.5 3.2
    endloop
  endfacet
  facet normal 1 0 0
    outer loop
      vertex 36 3.5 3.2
      vertex 36 11.7 0
      vertex 36 11.7 3.068880254327093
    endloop
  endfacet
  facet normal 1 0 0
    outer loop
      vertex 36 3.5 3.2
      vertex 36 11.7 3.068880254327093
      vertex 36 11.7 3.2
    endloop
  endfacet
  facet normal -0.9238795325112876 -0.38268343236508756 0
    outer loop
      vertex 29.80969883127822 3 21.543291419087275
      vertex 29.602592050091673 3.5 53.456708580912725
      vertex 29.602592050091673 3.5 21.543291419087275
    endloop
  endfacet
  facet normal 0 1 0
    outer loop
      vertex 29.602592050091673 3.5 21.543291419087275
      vertex 29.602592050091673 3.5 53.456708580912725
      vertex 36 3.5 3.2
    endloop
  endfacet
  facet normal 1 0 0
    outer loop
      vertex 36 3.3821052631578947 3.2
      vertex 36 3.5 3.2
      vertex 36 3.5 95
    endloop
  endfacet
  facet normal 0 0 -1
    outer loop
      vertex 28.268456375838927 11.7 0
      vertex 36 14.899999999999999 0
      vertex 36 11.7 0
    endloop
  endfacet
  facet normal 1 0 0
    outer loop
      vertex 36 11.7 3.068880254327093
      vertex 36 14.046666666666665 3.2
      vertex 36 11.7 3.2
    endloop
  endfacet
  facet normal 1 0 0
    outer loop
      vertex 36 11.7 0
      vertex 36 14.899999999999999 0
      vertex 36 11.7 3.068880254327093
    endloop
  endfacet
  facet normal 1 0 0
    outer loop
      vertex 36 11.7 3.2
      vertex 36 14.046666666666665 3.2
      vertex 36 11.7 12
    endloop
  endfacet
  facet normal 1 0 0
    outer loop
      vertex 36 11.7 3.068880254327093
      vertex 36 14.899999999999999 0
      vertex 36 14.046666666666665 3.2
    endloop
  endfacet
  facet normal 1 0 0
    outer loop
      vertex 36 14.046666666666665 3.2
      vertex 36 14.899999999999999 0
      vertex 36 14.899999999999999 3.2
    endloop
  endfacet
  facet normal 1 0 0
    outer loop
      vertex 36 11.7 12
      vertex 36 14.046666666666665 3.2
      vertex 36 14.899999999999999 12
    endloop
  endfacet
  facet normal 1 0 0
    outer loop
      vertex 36 14.046666666666665 3.2
      vertex 36 14.899999999999999 3.2
      vertex 36 14.899999999999999 12
    endloop
  endfacet
  facet normal 0 0 -1
    outer loop
      vertex 13.750398200273823 3.5 54.80969883127822
      vertex 28.24960179972618 3.5 54.80969883127822
      vertex 28.456708580912725 3 54.80969883127822
    endloop
  endfacet
  facet normal 0 1 0
    outer loop
      vertex 13.750398200273823 3.5 54.80969883127822
      vertex 36 3.5 95
      vertex 28.24960179972618 3.5 54.80969883127822
    endloop
  endfacet
  facet normal 0 1 0
    outer loop
      vertex 5.2 3.5 95
      vertex 36 3.5 95
      vertex 13.750398200273823 3.5 54.80969883127822
    endloop
  endfacet
  facet normal 0 -1 0
    outer loop
      vertex 5.2 11.7 93.9122233490111
      vertex 36 11.7 72
      vertex 36 11.7 93.91222334901111
    endloop
  endfacet
  facet normal -1.0266924232286344e-16 0.9749279121818245 0.2225209339563109
    outer loop
      vertex 5.2 11.7 93.9122233490111
      vertex 36 11.7 93.91222334901111
      vertex 36 11.73633703506394 93.75302039628254
    endloop
  endfacet
  facet normal 0 0 -1
    outer loop
      vertex 5.2 14.899999999999999 72
      vertex 36 14.899999999999999 72
      vertex 36 11.7 72
    endloop
  endfacet
  facet normal 0 1 0
    outer loop
      vertex 5.2 14.899999999999999 72
      vertex 36 14.899999999999999 93.91222334901111
      vertex 36 14.899999999999999 72
    endloop
  endfacet
  facet normal 0 0.43388373911756006 0.9009688679024183
    outer loop
      vertex 5.2 13.299999999999999 93
      vertex 36 11.73633703506394 93.75302039628254
      vertex 36 13.299999999999999 93
    endloop
  endfacet
  facet normal 0 -0.43388373911756006 0.9009688679024183
    outer loop
      vertex 5.2 14.863662964936058 93.75302039628254
      vertex 36 13.299999999999999 93
      vertex 36 14.863662964936058 93.75302039628254
    endloop
  endfacet
  facet normal 0 -0.9749279121818245 0.2225209339563109
    outer loop
      vertex 5.2 14.863662964936058 93.75302039628254
      vertex 36 14.863662964936058 93.75302039628254
      vertex 36 14.899999999999999 93.91222334901111
    endloop
  endfacet
  facet normal -0.6785983445458474 -0.28108463771481856 -0.6785983445458474
    outer loop
      vertex 28.24960179972618 3.5 54.80969883127822
      vertex 29.602592050091673 3.5 53.456708580912725
      vertex 29.80969883127822 3 53.456708580912725
    endloop
  endfacet
  facet normal 0 1 0
    outer loop
      vertex 28.24960179972618 3.5 54.80969883127822
      vertex 36 3.5 95
      vertex 29.602592050091673 3.5 53.456708580912725
    endloop
  endfacet
  facet normal 0 1 0
    outer loop
      vertex 36 3.5 3.2
      vertex 29.602592050091673 3.5 53.456708580912725
      vertex 36 3.5 95
    endloop
  endfacet
  facet normal 1 0 0
    outer loop
      vertex 36 11.7 72
      vertex 36 11.73633703506394 93.75302039628254
      vertex 36 11.7 93.91222334901111
    endloop
  endfacet
  facet normal 1 0 0
    outer loop
      vertex 36 11.7 72
      vertex 36 14.899999999999999 72
      vertex 36 11.73633703506394 93.75302039628254
    endloop
  endfacet
  facet normal 1 0 0
    outer loop
      vertex 36 11.73633703506394 93.75302039628254
      vertex 36 14.899999999999999 72
      vertex 36 13.299999999999999 93
    endloop
  endfacet
  facet normal 1 0 0
    outer loop
      vertex 36 14.899999999999999 72
      vertex 36 14.863662964936058 93.75302039628254
      vertex 36 13.299999999999999 93
    endloop
  endfacet
  facet normal 1 0 0
    outer loop
      vertex 36 14.899999999999999 72
      vertex 36 14.899999999999999 93.91222334901111
      vertex 36 14.863662964936058 93.75302039628254
    endloop
  endfacet
endsolid PythonSCAD_Model
