solid PythonSCAD_Model
  facet normal 0 -1 0
    outer loop
      vertex 0 0 3.2
      vertex 7.750398200273822 0 20.19030116872178
      vertex 6.397407949908331 0 21.543291419087275
    endloop
  endfacet
  facet normal 0.6785983445458478 0.2810846377148199 0.6785983445458464
    outer loop
      vertex 6.397407949908331 0 21.543291419087275
      vertex 7.750398200273822 0 20.19030116872178
      vertex 7.543291419087275 0.5 20.19030116872178
    endloop
  endfacet
  facet normal 0.6785983445458474 0.2810846377148209 0.6785983445458466
    outer loop
      vertex 6.397407949908331 0 21.543291419087275
      vertex 7.543291419087275 0.5 20.19030116872178
      vertex 6.190301168721783 0.5 21.543291419087275
    endloop
  endfacet
  facet normal 0.707106781186548 0 0.707106781186547
    outer loop
      vertex 6.190301168721783 0.5 21.543291419087275
      vertex 7.543291419087275 3 20.19030116872178
      vertex 6.190301168721783 3 21.543291419087275
    endloop
  endfacet
  facet normal 0.707106781186548 -1.478222747825249e-17 0.707106781186547
    outer loop
      vertex 6.190301168721783 0.5 21.543291419087275
      vertex 7.543291419087275 0.5 20.19030116872178
      vertex 7.543291419087275 3 20.19030116872178
    endloop
  endfacet
  facet normal 0 0 1
    outer loop
      vertex 7.750398200273822 0 20.19030116872178
      vertex 7.543291419087275 3 20.19030116872178
      vertex 7.543291419087275 0.5 20.19030116872178
    endloop
  endfacet
  facet normal 0 0 1
    outer loop
      vertex 7.750398200273822 0 20.19030116872178
      vertex 7.750398200273822 3.5 20.19030116872178
      vertex 7.543291419087275 3 20.19030116872178
    endloop
  endfacet
  facet normal 0.6785983445458477 -0.2810846377148199 0.6785983445458468
    outer loop
      vertex 6.190301168721783 3 21.543291419087275
      vertex 7.543291419087275 3 20.19030116872178
      vertex 7.750398200273822 3.5 20.19030116872178
    endloop
  endfacet
  facet normal 0 -1 0
    outer loop
      vertex 0 0 3.2
      vertex 6.397407949908331 0 21.543291419087275
      vertex 6.397407949908331 0 58.456708580912725
    endloop
  endfacet
  facet normal -1 0 0
    outer loop
      vertex 0 0 3.2
      vertex 0 3.5 95
      vertex 0 3.5 3.2
    endloop
  endfacet
  facet normal 0.9238795325112865 0.3826834323650904 0
    outer loop
      vertex 6.397407949908331 0 21.543291419087275
      vertex 6.190301168721783 0.5 21.543291419087275
      vertex 6.397407949908331 0 58.456708580912725
    endloop
  endfacet
  facet normal 1 0 0
    outer loop
      vertex 6.190301168721783 0.5 21.543291419087275
      vertex 6.190301168721783 3 21.543291419087275
      vertex 6.190301168721783 3 58.456708580912725
    endloop
  endfacet
  facet normal 0.9238795325112871 -0.38268343236508895 0
    outer loop
      vertex 6.190301168721783 3 21.543291419087275
      vertex 6.39740794990833 3.5 21.543291419087275
      vertex 6.190301168721783 3 58.456708580912725
    endloop
  endfacet
  facet normal 0.9238795325112865 0.3826834323650904 0
    outer loop
      vertex 6.190301168721783 0.5 21.543291419087275
      vertex 6.190301168721783 0.5 58.456708580912725
      vertex 6.397407949908331 0 58.456708580912725
    endloop
  endfacet
  facet normal 1 0 0
    outer loop
      vertex 6.190301168721783 0.5 21.543291419087275
      vertex 6.190301168721783 3 58.456708580912725
      vertex 6.190301168721783 0.5 58.456708580912725
    endloop
  endfacet
  facet normal 0 -1 0
    outer loop
      vertex 0 0 0
      vertex 36 0 3.2
      vertex 0 0 3.2
    endloop
  endfacet
  facet normal 0 -1 0
    outer loop
      vertex 0 0 3.2
      vertex 22.24960179972618 0 20.19030116872178
      vertex 7.750398200273822 0 20.19030116872178
    endloop
  endfacet
  facet normal 0 0 1
    outer loop
      vertex 7.750398200273822 0 20.19030116872178
      vertex 22.24960179972618 3.5 20.19030116872178
      vertex 7.750398200273822 3.5 20.19030116872178
    endloop
  endfacet
  facet normal 0 0 1
    outer loop
      vertex 7.750398200273822 0 20.19030116872178
      vertex 22.24960179972618 0 20.19030116872178
      vertex 22.456708580912725 0.5 20.19030116872178
    endloop
  endfacet
  facet normal 0 0 1
    outer loop
      vertex 7.750398200273822 0 20.19030116872178
      vertex 22.456708580912725 0.5 20.19030116872178
      vertex 22.456708580912725 3 20.19030116872178
    endloop
  endfacet
  facet normal 0 0 1
    outer loop
      vertex 7.750398200273822 0 20.19030116872178
      vertex 22.456708580912725 3 20.19030116872178
      vertex 22.24960179972618 3.5 20.19030116872178
    endloop
  endfacet
  facet normal 0 -1 0
    outer loop
      vertex 0 0 3.2
      vertex 6.397407949908331 0 58.456708580912725
      vertex 0 0 95
    endloop
  endfacet
  facet normal -1 0 0
    outer loop
      vertex 0 0 3.2
      vertex 0 0 95
      vertex 0 3.5 95
    endloop
  endfacet
  facet normal 0.6785983445458476 0.28108463771482095 -0.6785983445458462
    outer loop
      vertex 6.397407949908331 0 58.456708580912725
      vertex 6.190301168721783 0.5 58.456708580912725
      vertex 7.750398200273822 0 59.80969883127822
    endloop
  endfacet
  facet normal 0 -1 0
    outer loop
      vertex 6.397407949908331 0 58.456708580912725
      vertex 7.750398200273822 0 59.80969883127822
      vertex 0 0 95
    endloop
  endfacet
  facet normal 0.707106781186548 0 -0.707106781186547
    outer loop
      vertex 6.190301168721783 0.5 58.456708580912725
      vertex 6.190301168721783 3 58.456708580912725
      vertex 7.543291419087275 3 59.80969883127822
    endloop
  endfacet
  facet normal 0.6785983445458477 -0.28108463771481984 -0.6785983445458468
    outer loop
      vertex 6.190301168721783 3 58.456708580912725
      vertex 6.39740794990833 3.5 58.456708580912725
      vertex 7.543291419087275 3 59.80969883127822
    endloop
  endfacet
  facet normal 0.6785983445458477 0.2810846377148199 -0.6785983445458468
    outer loop
      vertex 6.190301168721783 0.5 58.456708580912725
      vertex 7.543291419087275 0.5 59.80969883127822
      vertex 7.750398200273822 0 59.80969883127822
    endloop
  endfacet
  facet normal 0.707106781186548 1.478222747825249e-17 -0.707106781186547
    outer loop
      vertex 6.190301168721783 0.5 58.456708580912725
      vertex 7.543291419087275 3 59.80969883127822
      vertex 7.543291419087275 0.5 59.80969883127822
    endloop
  endfacet
  facet normal 0 0 -1
    outer loop
      vertex 7.750398200273822 0 59.80969883127822
      vertex 7.543291419087275 0.5 59.80969883127822
      vertex 22.24960179972618 0 59.80969883127822
    endloop
  endfacet
  facet normal 0 0 -1
    outer loop
      vertex 7.543291419087275 0.5 59.80969883127822
      vertex 7.543291419087275 3 59.80969883127822
      vertex 22.456708580912725 3 59.80969883127822
    endloop
  endfacet
  facet normal 0 0 -1
    outer loop
      vertex 7.543291419087275 3 59.80969883127822
      vertex 7.750398200273822 3.5 59.80969883127822
      vertex 22.456708580912725 3 59.80969883127822
    endloop
  endfacet
  facet normal 0 0 -1
    outer loop
      vertex 7.543291419087275 0.5 59.80969883127822
      vertex 22.456708580912725 3 59.80969883127822
      vertex 22.24960179972618 0 59.80969883127822
    endloop
  endfacet
  facet normal 0 -1 0
    outer loop
      vertex 7.750398200273822 0 59.80969883127822
      vertex 22.24960179972618 0 59.80969883127822
      vertex 0 0 95
    endloop
  endfacet
  facet normal 0 0 1
    outer loop
      vertex 0 0 95
      vertex 30.799999999999997 3.5 95
      vertex 0 3.5 95
    endloop
  endfacet
  facet normal 0 -1 0
    outer loop
      vertex 0 0 95
      vertex 22.24960179972618 0 59.80969883127822
      vertex 23.8 0 76.8
    endloop
  endfacet
  facet normal 0 -1 0
    outer loop
      vertex 0 0 95
      vertex 23.8 0 76.8
      vertex 23.8 0 81.2
    endloop
  endfacet
  facet normal -1 0 0
    outer loop
      vertex 0 0 0
      vertex 0 0 3.2
      vertex 0 11.7 2.512751677852349
    endloop
  endfacet
  facet normal -1 0 0
    outer loop
      vertex 0 0 3.2
      vertex 0 3.5 3.2
      vertex 0 11.7 2.512751677852349
    endloop
  endfacet
  facet normal -1 0 0
    outer loop
      vertex 0 0 0
      vertex 0 11.7 2.512751677852349
      vertex 0 14.899999999999999 0
    endloop
  endfacet
  facet normal -1 0 0
    outer loop
      vertex 0 3.5 3.2
      vertex 0 11.7 3.2
      vertex 0 11.7 2.512751677852349
    endloop
  endfacet
  facet normal 0 1 0
    outer loop
      vertex 0 3.5 3.2
      vertex 6.39740794990833 3.5 21.543291419087275
      vertex 7.750398200273822 3.5 20.19030116872178
    endloop
  endfacet
  facet normal 0.6785983445458477 -0.28108463771481984 0.6785983445458468
    outer loop
      vertex 6.190301168721783 3 21.543291419087275
      vertex 7.750398200273822 3.5 20.19030116872178
      vertex 6.39740794990833 3.5 21.543291419087275
    endloop
  endfacet
  facet normal 0 1 0
    outer loop
      vertex 0 3.5 3.2
      vertex 6.39740794990833 3.5 58.456708580912725
      vertex 6.39740794990833 3.5 21.543291419087275
    endloop
  endfacet
  facet normal 0.9238795325112871 -0.38268343236508895 0
    outer loop
      vertex 6.39740794990833 3.5 21.543291419087275
      vertex 6.39740794990833 3.5 58.456708580912725
      vertex 6.190301168721783 3 58.456708580912725
    endloop
  endfacet
  facet normal -1 0 0
    outer loop
      vertex 0 11.7 2.512751677852349
      vertex 0 11.7 3.2
      vertex 0 14.899999999999999 3.2
    endloop
  endfacet
  facet normal -1 0 0
    outer loop
      vertex 0 11.7 3.2
      vertex 0 11.7 9
      vertex 0 14.899999999999999 9
    endloop
  endfacet
  facet normal -1 0 0
    outer loop
      vertex 0 11.7 2.512751677852349
      vertex 0 14.899999999999999 3.2
      vertex 0 14.899999999999999 0
    endloop
  endfacet
  facet normal -1 0 0
    outer loop
      vertex 0 11.7 3.2
      vertex 0 14.899999999999999 9
      vertex 0 14.899999999999999 3.2
    endloop
  endfacet
  facet normal 0 1 0
    outer loop
      vertex 0 3.5 3.2
      vertex 7.750398200273822 3.5 20.19030116872178
      vertex 22.24960179972618 3.5 20.19030116872178
    endloop
  endfacet
  facet normal 0 0 -1
    outer loop
      vertex 0 0 0
      vertex 0 14.899999999999999 0
      vertex 28.268456375838927 11.7 0
    endloop
  endfacet
  facet normal 0 0 1
    outer loop
      vertex 0 3.5 3.2
      vertex 32.8 11.7 3.2
      vertex 0 11.7 3.2
    endloop
  endfacet
  facet normal 0 -1 0
    outer loop
      vertex 0 11.7 3.2
      vertex 32.8 11.7 9
      vertex 0 11.7 9
    endloop
  endfacet
  facet normal 0 1 0
    outer loop
      vertex 0 14.899999999999999 0
      vertex 0 14.899999999999999 3.2
      vertex 32.8 14.899999999999999 0.28444444444444467
    endloop
  endfacet
  facet normal 0 0 1
    outer loop
      vertex 0 11.7 9
      vertex 32.8 14.899999999999999 9
      vertex 0 14.899999999999999 9
    endloop
  endfacet
  facet normal 0 1 0
    outer loop
      vertex 0 14.899999999999999 3.2
      vertex 0 14.899999999999999 9
      vertex 35.698478432832346 14.899999999999999 8.951421525289657
    endloop
  endfacet
  facet normal 0 1 0
    outer loop
      vertex 0 3.5 3.2
      vertex 0 3.5 95
      vertex 6.39740794990833 3.5 58.456708580912725
    endloop
  endfacet
  facet normal 0.6785983445458477 -0.2810846377148198 -0.6785983445458468
    outer loop
      vertex 6.39740794990833 3.5 58.456708580912725
      vertex 7.750398200273822 3.5 59.80969883127822
      vertex 7.543291419087275 3 59.80969883127822
    endloop
  endfacet
  facet normal 0 1 0
    outer loop
      vertex 6.39740794990833 3.5 58.456708580912725
      vertex 0 3.5 95
      vertex 7.750398200273822 3.5 59.80969883127822
    endloop
  endfacet
  facet normal 0 0 -1
    outer loop
      vertex 7.750398200273822 3.5 59.80969883127822
      vertex 22.24960179972618 3.5 59.80969883127822
      vertex 22.456708580912725 3 59.80969883127822
    endloop
  endfacet
  facet normal 0 1 0
    outer loop
      vertex 7.750398200273822 3.5 59.80969883127822
      vertex 0 3.5 95
      vertex 30.799999999999997 3.5 65.9
    endloop
  endfacet
  facet normal 0 -1 0
    outer loop
      vertex 23.55 -7 39
      vertex 24.26758838609296 -7 37.26758838609296
      vertex 28.45 -7 39
    endloop
  endfacet
  facet normal 0 -1 0
    outer loop
      vertex 23.55 -7 39
      vertex 27.73241161390704 -7 40.73241161390704
      vertex 24.26758838609296 -7 40.73241161390704
    endloop
  endfacet
  facet normal 0 -1 0
    outer loop
      vertex 24.26758838609296 -7 37.26758838609296
      vertex 26 -7 36.55
      vertex 27.73241161390704 -7 37.26758838609296
    endloop
  endfacet
  facet normal 0 -1 0
    outer loop
      vertex 24.26758838609296 -7 37.26758838609296
      vertex 27.73241161390704 -7 37.26758838609296
      vertex 28.45 -7 39
    endloop
  endfacet
  facet normal 0 -1 0
    outer loop
      vertex 24.26758838609296 -7 40.73241161390704
      vertex 27.73241161390704 -7 40.73241161390704
      vertex 26 -7 41.45
    endloop
  endfacet
  facet normal 0 -1 0
    outer loop
      vertex 23.55 -7 39
      vertex 28.45 -7 39
      vertex 27.73241161390704 -7 40.73241161390704
    endloop
  endfacet
  facet normal -0.9238795325112864 0 -0.3826834323650905
    outer loop
      vertex 23.55 -7 39
      vertex 23.55 0 39
      vertex 24.26758838609296 -7 37.26758838609296
    endloop
  endfacet
  facet normal -0.9238795325112864 -4.278268752432222e-18 0.3826834323650905
    outer loop
      vertex 23.55 -7 39
      vertex 24.26758838609296 -7 40.73241161390704
      vertex 24.26758838609296 0 40.73241161390704
    endloop
  endfacet
  facet normal -0.3826834323650921 -7.877574444255303e-18 -0.9238795325112859
    outer loop
      vertex 24.26758838609296 -7 37.26758838609296
      vertex 26 0 36.55
      vertex 26 -7 36.55
    endloop
  endfacet
  facet normal -0.3826834323650921 0 0.9238795325112859
    outer loop
      vertex 24.26758838609296 -7 40.73241161390704
      vertex 26 -7 41.45
      vertex 24.26758838609296 0 40.73241161390704
    endloop
  endfacet
  facet normal 0.3826834323650921 0 0.9238795325112859
    outer loop
      vertex 26 -7 41.45
      vertex 27.73241161390704 -7 40.73241161390704
      vertex 26 0 41.45
    endloop
  endfacet
  facet normal 0 -1 0
    outer loop
      vertex 0 0 3.2
      vertex 36 0 3.2
      vertex 22.24960179972618 0 20.19030116872178
    endloop
  endfacet
  facet normal 0 -1 0
    outer loop
      vertex 0 0 0
      vertex 36 0 0
      vertex 36 0 3.2
    endloop
  endfacet
  facet normal -0.6785983445458474 0.28108463771481856 0.6785983445458474
    outer loop
      vertex 22.24960179972618 0 20.19030116872178
      vertex 23.602592050091673 0 21.543291419087275
      vertex 23.80969883127822 0.5 21.543291419087275
    endloop
  endfacet
  facet normal 0 0 -1
    outer loop
      vertex 0 0 0
      vertex 32.8 4.842500000000005 0
      vertex 36 0 0
    endloop
  endfacet
  facet normal -0.6785983445458474 0.2810846377148185 0.6785983445458474
    outer loop
      vertex 22.24960179972618 0 20.19030116872178
      vertex 23.80969883127822 0.5 21.543291419087275
      vertex 22.456708580912725 0.5 20.19030116872178
    endloop
  endfacet
  facet normal -0.7071067811865476 0 0.7071067811865476
    outer loop
      vertex 22.456708580912725 0.5 20.19030116872178
      vertex 23.80969883127822 0.5 21.543291419087275
      vertex 22.456708580912725 3 20.19030116872178
    endloop
  endfacet
  facet normal -0.7071067811865476 6.608961328712462e-18 0.7071067811865476
    outer loop
      vertex 22.456708580912725 3 20.19030116872178
      vertex 23.80969883127822 0.5 21.543291419087275
      vertex 23.80969883127822 3 21.543291419087275
    endloop
  endfacet
  facet normal -0.6785983445458474 -0.2810846377148185 0.6785983445458474
    outer loop
      vertex 22.456708580912725 3 20.19030116872178
      vertex 23.80969883127822 3 21.543291419087275
      vertex 23.602592050091673 3.5 21.543291419087275
    endloop
  endfacet
  facet normal 0 -1 0
    outer loop
      vertex 23.602592050091673 0 21.543291419087275
      vertex 24.26758838609296 0 37.26758838609296
      vertex 23.602592050091673 0 38.87303155939568
    endloop
  endfacet
  facet normal 0 -1 0
    outer loop
      vertex 23.602592050091673 0 21.543291419087275
      vertex 26 0 36.55
      vertex 24.26758838609296 0 37.26758838609296
    endloop
  endfacet
  facet normal 0 -1 0
    outer loop
      vertex 23.602592050091673 0 21.543291419087275
      vertex 27.73241161390704 0 37.26758838609296
      vertex 26 0 36.55
    endloop
  endfacet
  facet normal 0 -1 0
    outer loop
      vertex 23.602592050091673 0 21.543291419087275
      vertex 28.45 0 39
      vertex 27.73241161390704 0 37.26758838609296
    endloop
  endfacet
  facet normal -0.9238795325112901 0 0.38268343236508184
    outer loop
      vertex 23.55 -7 39
      vertex 23.602592050091673 0 39.12696844060432
      vertex 23.55 0 39
    endloop
  endfacet
  facet normal -0.9238795325112901 -2.4426183683361122e-15 -0.38268343236508184
    outer loop
      vertex 24.26758838609296 -7 37.26758838609296
      vertex 23.55 0 39
      vertex 23.602592050091673 0 38.87303155939568
    endloop
  endfacet
  facet normal -0.9238795325112862 0 -0.38268343236509117
    outer loop
      vertex 24.26758838609296 -7 37.26758838609296
      vertex 23.602592050091673 0 38.87303155939568
      vertex 24.26758838609296 0 37.26758838609296
    endloop
  endfacet
  facet normal -0.9238795325112862 -1.9893497456848308e-16 0.38268343236509117
    outer loop
      vertex 23.55 -7 39
      vertex 24.26758838609296 0 40.73241161390704
      vertex 23.602592050091673 0 39.12696844060432
    endloop
  endfacet
  facet normal 0 1 0
    outer loop
      vertex 23.55 0 39
      vertex 23.602592050091673 0 39.12696844060432
      vertex 23.602592050091673 0 38.87303155939568
    endloop
  endfacet
  facet normal -0.9238795325112877 0.3826834323650876 0
    outer loop
      vertex 23.602592050091673 0 21.543291419087275
      vertex 23.602592050091673 0 38.87303155939568
      vertex 23.80969883127822 0.5 58.456708580912725
    endloop
  endfacet
  facet normal -0.9238795325112886 0.38268343236508545 0
    outer loop
      vertex 23.80969883127822 0.5 58.456708580912725
      vertex 23.602592050091673 0 38.87303155939568
      vertex 23.602592050091673 0 39.12696844060432
    endloop
  endfacet
  facet normal 0 -1 0
    outer loop
      vertex 23.602592050091673 0 58.456708580912725
      vertex 23.602592050091673 0 39.12696844060432
      vertex 24.26758838609296 0 40.73241161390704
    endloop
  endfacet
  facet normal 0 -1 0
    outer loop
      vertex 23.602592050091673 0 58.456708580912725
      vertex 24.26758838609296 0 40.73241161390704
      vertex 26 0 41.45
    endloop
  endfacet
  facet normal -0.3826834323650921 0 -0.9238795325112859
    outer loop
      vertex 24.26758838609296 -7 37.26758838609296
      vertex 24.26758838609296 0 37.26758838609296
      vertex 26 0 36.55
    endloop
  endfacet
  facet normal -0.3826834323650921 0 0.9238795325112859
    outer loop
      vertex 26 -7 41.45
      vertex 26 0 41.45
      vertex 24.26758838609296 0 40.73241161390704
    endloop
  endfacet
  facet normal 0.3826834323650921 0 -0.9238795325112859
    outer loop
      vertex 26 -7 36.55
      vertex 26 0 36.55
      vertex 27.73241161390704 0 37.26758838609296
    endloop
  endfacet
  facet normal -0.9238795325112877 0.38268343236508756 0
    outer loop
      vertex 23.602592050091673 0 21.543291419087275
      vertex 23.80969883127822 0.5 58.456708580912725
      vertex 23.80969883127822 0.5 21.543291419087275
    endloop
  endfacet
  facet normal -1 0 0
    outer loop
      vertex 23.80969883127822 0.5 21.543291419087275
      vertex 23.80969883127822 3 58.456708580912725
      vertex 23.80969883127822 3 21.543291419087275
    endloop
  endfacet
  facet normal -1 0 0
    outer loop
      vertex 23.80969883127822 0.5 21.543291419087275
      vertex 23.80969883127822 0.5 58.456708580912725
      vertex 23.80969883127822 3 58.456708580912725
    endloop
  endfacet
  facet normal -0.9238795325112877 -0.38268343236508756 0
    outer loop
      vertex 23.80969883127822 3 21.543291419087275
      vertex 23.80969883127822 3 58.456708580912725
      vertex 23.602592050091673 3.5 58.456708580912725
    endloop
  endfacet
  facet normal 0.3826834323650921 7.877574444255303e-18 -0.9238795325112859
    outer loop
      vertex 26 -7 36.55
      vertex 27.73241161390704 0 37.26758838609296
      vertex 27.73241161390704 -7 37.26758838609296
    endloop
  endfacet
  facet normal 0.9238795325112864 0 -0.3826834323650905
    outer loop
      vertex 27.73241161390704 -7 37.26758838609296
      vertex 27.73241161390704 0 37.26758838609296
      vertex 28.45 -7 39
    endloop
  endfacet
  facet normal 0.9238795325112864 4.278268752432222e-18 0.3826834323650905
    outer loop
      vertex 27.73241161390704 -7 40.73241161390704
      vertex 28.45 -7 39
      vertex 28.45 0 39
    endloop
  endfacet
  facet normal 0 -1 0
    outer loop
      vertex 22.24960179972618 0 20.19030116872178
      vertex 36 0 3.2
      vertex 23.602592050091673 0 21.543291419087275
    endloop
  endfacet
  facet normal 1 0 0
    outer loop
      vertex 36 0 0
      vertex 36 3.5 0
      vertex 36 0 3.2
    endloop
  endfacet
  facet normal 1 0 0
    outer loop
      vertex 36 0 3.2
      vertex 36 3.5 0
      vertex 36 3.3821052631578947 3.2
    endloop
  endfacet
  facet normal 0 0 -1
    outer loop
      vertex 36 0 0
      vertex 32.8 4.842500000000005 0
      vertex 36 3.5 0
    endloop
  endfacet
  facet normal 0.3826834323650921 0 0.9238795325112859
    outer loop
      vertex 27.73241161390704 -7 40.73241161390704
      vertex 27.73241161390704 0 40.73241161390704
      vertex 26 0 41.45
    endloop
  endfacet
  facet normal 0.9238795325112864 0 0.3826834323650905
    outer loop
      vertex 27.73241161390704 -7 40.73241161390704
      vertex 28.45 0 39
      vertex 27.73241161390704 0 40.73241161390704
    endloop
  endfacet
  facet normal 0.9238795325112864 0 -0.3826834323650905
    outer loop
      vertex 28.45 -7 39
      vertex 27.73241161390704 0 37.26758838609296
      vertex 28.45 0 39
    endloop
  endfacet
  facet normal 0 -1 0
    outer loop
      vertex 23.602592050091673 0 21.543291419087275
      vertex 36 0 65.9
      vertex 28.45 0 39
    endloop
  endfacet
  facet normal 0 -1 0
    outer loop
      vertex 23.602592050091673 0 21.543291419087275
      vertex 36 0 3.2
      vertex 36 0 65.9
    endloop
  endfacet
  facet normal 1 0 0
    outer loop
      vertex 36 0 3.2
      vertex 36 3.3821052631578947 3.2
      vertex 36 0 65.9
    endloop
  endfacet
  facet normal 1 0 0
    outer loop
      vertex 36 3.3821052631578947 3.2
      vertex 36 3.5 3.2
      vertex 36 0 65.9
    endloop
  endfacet
  facet normal 1 0 0
    outer loop
      vertex 36 3.5 3.2
      vertex 36 3.5 65.9
      vertex 36 0 65.9
    endloop
  endfacet
  facet normal 0 -1 0
    outer loop
      vertex 23.8 -8.5 72.2
      vertex 26.04888888888889 -8.5 76.8
      vertex 23.8 -8.5 76.8
    endloop
  endfacet
  facet normal -1 0 0
    outer loop
      vertex 23.8 -8.5 72.2
      vertex 23.8 -8.5 76.8
      vertex 23.8 -4.1 72.2
    endloop
  endfacet
  facet normal -1 0 0
    outer loop
      vertex 23.8 -8.5 76.8
      vertex 23.8 -8.5 81.2
      vertex 23.8 -4.1 81.2
    endloop
  endfacet
  facet normal 0 -1 0
    outer loop
      vertex 23.8 -8.5 72.2
      vertex 28.2 -8.5 72.2
      vertex 26.04888888888889 -8.5 76.8
    endloop
  endfacet
  facet normal 0 -1 0
    outer loop
      vertex 23.8 -8.5 76.8
      vertex 28.2 -8.5 81.2
      vertex 23.8 -8.5 81.2
    endloop
  endfacet
  facet normal 0 -1 0
    outer loop
      vertex 23.8 -8.5 81.2
      vertex 28.2 -8.5 81.2
      vertex 23.8 -8.5 84.3
    endloop
  endfacet
  facet normal 0 -1 0
    outer loop
      vertex 23.8 -8.5 76.8
      vertex 26.04888888888889 -8.5 76.8
      vertex 28.2 -8.5 81.2
    endloop
  endfacet
  facet normal 0 0 -1
    outer loop
      vertex 23.8 -8.5 72.2
      vertex 28.2 -4.1 72.2
      vertex 28.2 -8.5 72.2
    endloop
  endfacet
  facet normal -1 0 0
    outer loop
      vertex 23.8 -8.5 81.2
      vertex 23.8 -8.5 84.3
      vertex 23.8 -4.1 84.3
    endloop
  endfacet
  facet normal 0 -1 0
    outer loop
      vertex 23.8 -8.5 84.3
      vertex 28.2 -8.5 81.2
      vertex 28.2 -8.5 84.3
    endloop
  endfacet
  facet normal 0 0 1
    outer loop
      vertex 23.8 -8.5 84.3
      vertex 28.2 -8.5 84.3
      vertex 23.8 -4.1 84.3
    endloop
  endfacet
  facet normal -1 0 0
    outer loop
      vertex 23.8 -8.5 76.8
      vertex 23.8 -4.1 76.8
      vertex 23.8 -4.1 72.2
    endloop
  endfacet
  facet normal -1 0 0
    outer loop
      vertex 23.8 -8.5 81.2
      vertex 23.8 -4.1 84.3
      vertex 23.8 -4.1 81.2
    endloop
  endfacet
  facet normal -1 0 0
    outer loop
      vertex 23.8 -8.5 76.8
      vertex 23.8 0 81.2
      vertex 23.8 -4.1 76.8
    endloop
  endfacet
  facet normal -1 0 0
    outer loop
      vertex 23.8 -8.5 76.8
      vertex 23.8 -4.1 81.2
      vertex 23.8 0 81.2
    endloop
  endfacet
  facet normal 0 0 -1
    outer loop
      vertex 23.8 -8.5 72.2
      vertex 23.8 -4.1 72.2
      vertex 28.2 -4.1 72.2
    endloop
  endfacet
  facet normal 0 1 0
    outer loop
      vertex 23.8 -4.1 72.2
      vertex 23.8 -4.1 76.8
      vertex 28.2 -4.1 72.2
    endloop
  endfacet
  facet normal 0 1 0
    outer loop
      vertex 23.8 -4.1 76.8
      vertex 28.2 -4.1 76.8
      vertex 28.2 -4.1 72.2
    endloop
  endfacet
  facet normal 0 0 -1
    outer loop
      vertex 23.8 -4.1 76.8
      vertex 28.2 0 76.8
      vertex 28.2 -4.1 76.8
    endloop
  endfacet
  facet normal 0 1 0
    outer loop
      vertex 23.8 -4.1 81.2
      vertex 28.2 -4.1 84.3
      vertex 28.2 -4.1 81.2
    endloop
  endfacet
  facet normal 0 0 1
    outer loop
      vertex 23.8 -4.1 81.2
      vertex 28.2 -4.1 81.2
      vertex 28.2 0 81.2
    endloop
  endfacet
  facet normal 0 0 1
    outer loop
      vertex 23.8 -4.1 84.3
      vertex 28.2 -8.5 84.3
      vertex 28.2 -4.1 84.3
    endloop
  endfacet
  facet normal 0 1 0
    outer loop
      vertex 23.8 -4.1 81.2
      vertex 23.8 -4.1 84.3
      vertex 28.2 -4.1 84.3
    endloop
  endfacet
  facet normal 0 0 -1
    outer loop
      vertex 22.24960179972618 0 59.80969883127822
      vertex 22.456708580912725 3 59.80969883127822
      vertex 22.456708580912725 0.5 59.80969883127822
    endloop
  endfacet
  facet normal -0.9238795325112876 0.38268343236508756 0
    outer loop
      vertex 23.602592050091673 0 58.456708580912725
      vertex 23.80969883127822 0.5 58.456708580912725
      vertex 23.602592050091673 0 39.12696844060432
    endloop
  endfacet
  facet normal -0.6785983445458474 0.2810846377148185 -0.6785983445458474
    outer loop
      vertex 22.24960179972618 0 59.80969883127822
      vertex 22.456708580912725 0.5 59.80969883127822
      vertex 23.602592050091673 0 58.456708580912725
    endloop
  endfacet
  facet normal 0 -1 0
    outer loop
      vertex 23.602592050091673 0 58.456708580912725
      vertex 26 0 41.45
      vertex 30.799999999999997 0 65.9
    endloop
  endfacet
  facet normal 0 -1 0
    outer loop
      vertex 22.24960179972618 0 59.80969883127822
      vertex 23.602592050091673 0 58.456708580912725
      vertex 28.2 0 76.8
    endloop
  endfacet
  facet normal 0 -1 0
    outer loop
      vertex 22.24960179972618 0 59.80969883127822
      vertex 28.2 0 76.8
      vertex 23.8 0 76.8
    endloop
  endfacet
  facet normal -0.6785983445458474 0.2810846377148185 -0.6785983445458474
    outer loop
      vertex 22.456708580912725 0.5 59.80969883127822
      vertex 23.80969883127822 0.5 58.456708580912725
      vertex 23.602592050091673 0 58.456708580912725
    endloop
  endfacet
  facet normal -0.7071067811865476 0 -0.7071067811865476
    outer loop
      vertex 22.456708580912725 0.5 59.80969883127822
      vertex 22.456708580912725 3 59.80969883127822
      vertex 23.80969883127822 0.5 58.456708580912725
    endloop
  endfacet
  facet normal -0.7071067811865476 -6.608961328712462e-18 -0.7071067811865476
    outer loop
      vertex 22.456708580912725 3 59.80969883127822
      vertex 23.80969883127822 3 58.456708580912725
      vertex 23.80969883127822 0.5 58.456708580912725
    endloop
  endfacet
  facet normal -0.6785983445458474 -0.2810846377148185 -0.6785983445458474
    outer loop
      vertex 22.456708580912725 3 59.80969883127822
      vertex 22.24960179972618 3.5 59.80969883127822
      vertex 23.80969883127822 3 58.456708580912725
    endloop
  endfacet
  facet normal 0 -1 0
    outer loop
      vertex 0 0 95
      vertex 23.8 0 81.2
      vertex 30.799999999999997 0 95
    endloop
  endfacet
  facet normal 0 0 1
    outer loop
      vertex 0 0 95
      vertex 30.799999999999997 0 95
      vertex 30.799999999999997 3.5 95
    endloop
  endfacet
  facet normal -1 0 0
    outer loop
      vertex 23.8 -4.1 76.8
      vertex 23.8 0 81.2
      vertex 23.8 0 76.8
    endloop
  endfacet
  facet normal 0 0 -1
    outer loop
      vertex 23.8 -4.1 76.8
      vertex 23.8 0 76.8
      vertex 28.2 0 76.8
    endloop
  endfacet
  facet normal 0 0 1
    outer loop
      vertex 23.8 -4.1 81.2
      vertex 28.2 0 81.2
      vertex 23.8 0 81.2
    endloop
  endfacet
  facet normal 0 -1 0
    outer loop
      vertex 26.04888888888889 -8.5 76.8
      vertex 28.2 -8.5 72.2
      vertex 28.2 -8.5 76.8
    endloop
  endfacet
  facet normal 0 -1 0
    outer loop
      vertex 26.04888888888889 -8.5 76.8
      vertex 28.2 -8.5 76.8
      vertex 28.2 -8.5 81.2
    endloop
  endfacet
  facet normal 1 0 0
    outer loop
      vertex 28.2 -8.5 72.2
      vertex 28.2 -4.1 76.8
      vertex 28.2 -8.5 76.8
    endloop
  endfacet
  facet normal 1 0 0
    outer loop
      vertex 28.2 -8.5 76.8
      vertex 28.2 -4.1 76.8
      vertex 28.2 -8.5 81.2
    endloop
  endfacet
  facet normal 1 0 0
    outer loop
      vertex 28.2 -8.5 81.2
      vertex 28.2 -4.1 76.8
      vertex 28.2 -8.5 84.3
    endloop
  endfacet
  facet normal 1 0 0
    outer loop
      vertex 28.2 -8.5 72.2
      vertex 28.2 -4.1 72.2
      vertex 28.2 -4.1 76.8
    endloop
  endfacet
  facet normal 1 0 0
    outer loop
      vertex 28.2 -8.5 84.3
      vertex 28.2 -4.1 76.8
      vertex 28.2 -4.1 81.2
    endloop
  endfacet
  facet normal 1 0 0
    outer loop
      vertex 28.2 -4.1 76.8
      vertex 28.2 0 76.8
      vertex 28.2 -4.1 81.2
    endloop
  endfacet
  facet normal 1 0 0
    outer loop
      vertex 28.2 -8.5 84.3
      vertex 28.2 -4.1 81.2
      vertex 28.2 -4.1 84.3
    endloop
  endfacet
  facet normal 0 -1 0
    outer loop
      vertex 36 0 65.9
      vertex 26 0 41.45
      vertex 27.73241161390704 0 40.73241161390704
    endloop
  endfacet
  facet normal 0 -1 0
    outer loop
      vertex 36 0 65.9
      vertex 27.73241161390704 0 40.73241161390704
      vertex 28.45 0 39
    endloop
  endfacet
  facet normal 0 -1 0
    outer loop
      vertex 30.799999999999997 0 65.9
      vertex 26 0 41.45
      vertex 36 0 65.9
    endloop
  endfacet
  facet normal 0 -1 0
    outer loop
      vertex 23.602592050091673 0 58.456708580912725
      vertex 30.799999999999997 0 65.9
      vertex 28.2 0 76.8
    endloop
  endfacet
  facet normal 0 0 1
    outer loop
      vertex 30.799999999999997 0 65.9
      vertex 36 0 65.9
      vertex 30.799999999999997 3.5 65.9
    endloop
  endfacet
  facet normal 0 0 1
    outer loop
      vertex 30.799999999999997 3.5 65.9
      vertex 36 0 65.9
      vertex 32.8 3.5 65.9
    endloop
  endfacet
  facet normal 0 0 1
    outer loop
      vertex 36 0 65.9
      vertex 36 3.5 65.9
      vertex 32.8 3.5 65.9
    endloop
  endfacet
  facet normal 1 0 0
    outer loop
      vertex 28.2 -4.1 81.2
      vertex 28.2 0 76.8
      vertex 28.2 0 81.2
    endloop
  endfacet
  facet normal 0 -1 0
    outer loop
      vertex 30.799999999999997 0 65.9
      vertex 30.799999999999997 0 95
      vertex 28.2 0 76.8
    endloop
  endfacet
  facet normal 0 -1 0
    outer loop
      vertex 30.799999999999997 0 95
      vertex 23.8 0 81.2
      vertex 28.2 0 81.2
    endloop
  endfacet
  facet normal 0 -1 0
    outer loop
      vertex 30.799999999999997 0 95
      vertex 28.2 0 81.2
      vertex 28.2 0 76.8
    endloop
  endfacet
  facet normal 1 0 0
    outer loop
      vertex 30.799999999999997 0 65.9
      vertex 30.799999999999997 3.5 65.9
      vertex 30.799999999999997 0 95
    endloop
  endfacet
  facet normal 1 0 0
    outer loop
      vertex 30.799999999999997 3.5 65.9
      vertex 30.799999999999997 3.5 95
      vertex 30.799999999999997 0 95
    endloop
  endfacet
  facet normal 0 1 0
    outer loop
      vertex 0 3.5 3.2
      vertex 22.24960179972618 3.5 20.19030116872178
      vertex 32.8 3.5 3.2
    endloop
  endfacet
  facet normal 0 0 -1
    outer loop
      vertex 0 0 0
      vertex 28.268456375838927 11.7 0
      vertex 32.8 4.842500000000005 0
    endloop
  endfacet
  facet normal 0 0 1
    outer loop
      vertex 0 3.5 3.2
      vertex 32.8 3.5 3.2
      vertex 32.8 11.7 3.2
    endloop
  endfacet
  facet normal -0.6785983445458474 -0.2810846377148185 0.6785983445458474
    outer loop
      vertex 22.456708580912725 3 20.19030116872178
      vertex 23.602592050091673 3.5 21.543291419087275
      vertex 22.24960179972618 3.5 20.19030116872178
    endloop
  endfacet
  facet normal 0 1 0
    outer loop
      vertex 22.24960179972618 3.5 20.19030116872178
      vertex 23.602592050091673 3.5 21.543291419087275
      vertex 32.8 3.5 3.2
    endloop
  endfacet
  facet normal -0.9238795325112877 -0.38268343236508756 0
    outer loop
      vertex 23.602592050091673 3.5 21.543291419087275
      vertex 23.80969883127822 3 21.543291419087275
      vertex 23.602592050091673 3.5 58.456708580912725
    endloop
  endfacet
  facet normal 0 1 0
    outer loop
      vertex 23.602592050091673 3.5 21.543291419087275
      vertex 23.602592050091673 3.5 58.456708580912725
      vertex 32.8 3.5 3.2
    endloop
  endfacet
  facet normal 0 -1 0
    outer loop
      vertex 0 11.7 3.2
      vertex 32.8 11.7 3.2
      vertex 32.8 11.7 9
    endloop
  endfacet
  facet normal 0 0 1
    outer loop
      vertex 0 11.7 9
      vertex 32.8 11.7 9
      vertex 32.8 14.899999999999999 9
    endloop
  endfacet
  facet normal 0 0 -1
    outer loop
      vertex 0 14.899999999999999 0
      vertex 32.8 14.899999999999999 0
      vertex 28.268456375838927 11.7 0
    endloop
  endfacet
  facet normal 0 1 0
    outer loop
      vertex 0 14.899999999999999 0
      vertex 32.8 14.899999999999999 0.28444444444444467
      vertex 32.8 14.899999999999999 0
    endloop
  endfacet
  facet normal 0 1 0
    outer loop
      vertex 0 14.899999999999999 3.2
      vertex 36 14.899999999999999 3.2
      vertex 32.8 14.899999999999999 0.28444444444444467
    endloop
  endfacet
  facet normal 0 1 0
    outer loop
      vertex 0 14.899999999999999 3.2
      vertex 36 14.899999999999999 8.482142857142858
      vertex 36 14.899999999999999 3.2
    endloop
  endfacet
  facet normal 0 1 0
    outer loop
      vertex 0 14.899999999999999 9
      vertex 32.8 14.899999999999999 9
      vertex 35.698478432832346 14.899999999999999 8.951421525289657
    endloop
  endfacet
  facet normal 0 1 0
    outer loop
      vertex 0 14.899999999999999 3.2
      vertex 35.698478432832346 14.899999999999999 8.951421525289657
      vertex 36 14.899999999999999 8.482142857142858
    endloop
  endfacet
  facet normal 1 0 0
    outer loop
      vertex 36 3.5 0
      vertex 36 3.5 3.2
      vertex 36 3.3821052631578947 3.2
    endloop
  endfacet
  facet normal -1 0 0
    outer loop
      vertex 32.8 3.5 3.2
      vertex 32.8 11.7 9
      vertex 32.8 11.7 3.2
    endloop
  endfacet
  facet normal 0 0 -1
    outer loop
      vertex 36 3.5 0
      vertex 32.8 4.842500000000005 0
      vertex 36 11.7 0
    endloop
  endfacet
  facet normal 1 0 0
    outer loop
      vertex 36 3.5 0
      vertex 36 11.7 0
      vertex 36 3.5 3.2
    endloop
  endfacet
  facet normal 1 0 0
    outer loop
      vertex 36 3.5 3.2
      vertex 36 11.7 0
      vertex 36 11.7 2.8676422048630212
    endloop
  endfacet
  facet normal 1 0 0
    outer loop
      vertex 36 3.5 3.2
      vertex 36 11.7 2.8676422048630212
      vertex 36 11.7 3.2
    endloop
  endfacet
  facet normal 1 0 0
    outer loop
      vertex 36 3.5 3.2
      vertex 36 11.7 3.2
      vertex 36 11.7 9
    endloop
  endfacet
  facet normal 0 1 0
    outer loop
      vertex 32.8 3.5 3.2
      vertex 23.602592050091673 3.5 58.456708580912725
      vertex 30.799999999999997 3.5 65.9
    endloop
  endfacet
  facet normal 0 1 0
    outer loop
      vertex 32.8 3.5 3.2
      vertex 30.799999999999997 3.5 65.9
      vertex 32.8 3.5 65.9
    endloop
  endfacet
  facet normal -1 0 0
    outer loop
      vertex 32.8 3.5 3.2
      vertex 32.8 3.5 65.9
      vertex 32.8 11.7 9
    endloop
  endfacet
  facet normal 1 0 0
    outer loop
      vertex 36 3.5 3.2
      vertex 36 11.7 9
      vertex 36 3.5 65.9
    endloop
  endfacet
  facet normal 0 0 -1
    outer loop
      vertex 32.8 4.842500000000005 0
      vertex 28.268456375838927 11.7 0
      vertex 32.8 11.7 0
    endloop
  endfacet
  facet normal 0 0 -1
    outer loop
      vertex 28.268456375838927 11.7 0
      vertex 32.8 13.575555555555553 0
      vertex 32.8 11.7 0
    endloop
  endfacet
  facet normal 0 0 -1
    outer loop
      vertex 28.268456375838927 11.7 0
      vertex 32.8 14.899999999999999 0
      vertex 32.8 13.575555555555553 0
    endloop
  endfacet
  facet normal 0 0 -1
    outer loop
      vertex 32.8 4.842500000000005 0
      vertex 32.8 11.7 0
      vertex 36 14.899999999999999 0
    endloop
  endfacet
  facet normal 0 0 -1
    outer loop
      vertex 32.8 4.842500000000005 0
      vertex 36 14.899999999999999 0
      vertex 36 11.7 0
    endloop
  endfacet
  facet normal 0 0 -1
    outer loop
      vertex 32.8 11.7 0
      vertex 32.8 13.575555555555553 0
      vertex 36 14.899999999999999 0
    endloop
  endfacet
  facet normal 1 0 0
    outer loop
      vertex 36 11.7 0
      vertex 36 13.76222222222222 3.2
      vertex 36 11.7 2.8676422048630212
    endloop
  endfacet
  facet normal 1 0 0
    outer loop
      vertex 36 11.7 2.8676422048630212
      vertex 36 13.76222222222222 3.2
      vertex 36 11.7 3.2
    endloop
  endfacet
  facet normal 1 0 0
    outer loop
      vertex 36 11.7 3.2
      vertex 36 13.76222222222222 3.2
      vertex 36 11.7 9
    endloop
  endfacet
  facet normal 1 0 0
    outer loop
      vertex 36 11.7 9
      vertex 36 13.76222222222222 3.2
      vertex 36 13.488421052631578 9
    endloop
  endfacet
  facet normal 0 0 -1
    outer loop
      vertex 32.8 13.575555555555553 0
      vertex 32.8 14.899999999999999 0
      vertex 36 14.899999999999999 0
    endloop
  endfacet
  facet normal 0 1 0
    outer loop
      vertex 32.8 14.899999999999999 0
      vertex 32.8 14.899999999999999 0.28444444444444467
      vertex 36 14.899999999999999 0
    endloop
  endfacet
  facet normal 1 0 0
    outer loop
      vertex 36 11.7 0
      vertex 36 14.899999999999999 0
      vertex 36 13.76222222222222 3.2
    endloop
  endfacet
  facet normal 1 0 0
    outer loop
      vertex 36 13.76222222222222 3.2
      vertex 36 14.899999999999999 3.2
      vertex 36 13.488421052631578 9
    endloop
  endfacet
  facet normal 0 1 0
    outer loop
      vertex 32.8 14.899999999999999 0.28444444444444467
      vertex 36 14.899999999999999 3.2
      vertex 36 14.899999999999999 0
    endloop
  endfacet
  facet normal 1 0 0
    outer loop
      vertex 36 13.76222222222222 3.2
      vertex 36 14.899999999999999 0
      vertex 36 14.899999999999999 3.2
    endloop
  endfacet
  facet normal 0 1 0
    outer loop
      vertex 32.8 14.899999999999999 9
      vertex 35.69684210526316 14.899999999999999 9
      vertex 35.698478432832346 14.899999999999999 8.951421525289657
    endloop
  endfacet
  facet normal 1 0 0
    outer loop
      vertex 36 13.488421052631578 9
      vertex 36 14.899999999999999 3.2
      vertex 36 14.899999999999999 8.482142857142858
    endloop
  endfacet
  facet normal 1 0 0
    outer loop
      vertex 36 3.5 65.9
      vertex 36 11.7 9
      vertex 36 13.488421052631578 9
    endloop
  endfacet
  facet normal 1 0 0
    outer loop
      vertex 36 3.5 65.9
      vertex 36 13.488421052631578 9
      vertex 36 14.899999999999999 8.482142857142858
    endloop
  endfacet
  facet normal -1 0 0
    outer loop
      vertex 32.8 3.5 65.9
      vertex 32.8 14.899999999999999 65.9
      vertex 32.8 11.7 9
    endloop
  endfacet
  facet normal 1 0 0
    outer loop
      vertex 36 3.5 65.9
      vertex 36 14.899999999999999 8.482142857142858
      vertex 36 14.899999999999999 65.9
    endloop
  endfacet
  facet normal -1 0 0
    outer loop
      vertex 32.8 11.7 9
      vertex 32.8 14.899999999999999 65.9
      vertex 32.8 14.899999999999999 9
    endloop
  endfacet
  facet normal 0 1 0
    outer loop
      vertex 32.8 14.899999999999999 9
      vertex 36 14.899999999999999 65.9
      vertex 35.69684210526316 14.899999999999999 9
    endloop
  endfacet
  facet normal 0 1 0
    outer loop
      vertex 35.698478432832346 14.899999999999999 8.951421525289657
      vertex 35.69684210526316 14.899999999999999 9
      vertex 36 14.899999999999999 65.9
    endloop
  endfacet
  facet normal 0 1 0
    outer loop
      vertex 36 14.899999999999999 8.482142857142858
      vertex 35.698478432832346 14.899999999999999 8.951421525289657
      vertex 36 14.899999999999999 65.9
    endloop
  endfacet
  facet normal 0 1 0
    outer loop
      vertex 32.8 14.899999999999999 9
      vertex 32.8 14.899999999999999 65.9
      vertex 36 14.899999999999999 65.9
    endloop
  endfacet
  facet normal 0 1 0
    outer loop
      vertex 7.750398200273822 3.5 59.80969883127822
      vertex 30.799999999999997 3.5 65.9
      vertex 22.24960179972618 3.5 59.80969883127822
    endloop
  endfacet
  facet normal -0.6785983445458474 -0.28108463771481856 -0.6785983445458474
    outer loop
      vertex 22.24960179972618 3.5 59.80969883127822
      vertex 23.602592050091673 3.5 58.456708580912725
      vertex 23.80969883127822 3 58.456708580912725
    endloop
  endfacet
  facet normal 0 1 0
    outer loop
      vertex 22.24960179972618 3.5 59.80969883127822
      vertex 30.799999999999997 3.5 65.9
      vertex 23.602592050091673 3.5 58.456708580912725
    endloop
  endfacet
  facet normal 0 1 0
    outer loop
      vertex 0 3.5 95
      vertex 30.799999999999997 3.5 95
      vertex 30.799999999999997 3.5 65.9
    endloop
  endfacet
  facet normal 0 0 1
    outer loop
      vertex 32.8 3.5 65.9
      vertex 36 3.5 65.9
      vertex 32.8 14.899999999999999 65.9
    endloop
  endfacet
  facet normal 0 0 1
    outer loop
      vertex 36 3.5 65.9
      vertex 36 14.899999999999999 65.9
      vertex 32.8 14.899999999999999 65.9
    endloop
  endfacet
endsolid PythonSCAD_Model
